<svg width="500" height="500" viewBox="0 0 500 500" fill="none" xmlns="http://www.w3.org/2000/svg">
<rect x="250.996" width="353.556" height="353.556" transform="rotate(45.2281 250.996 0)" fill="#C4C4C4"/>
<path d="M275.28 363.176H229.589C229.127 363.177 228.673 363.305 228.278 363.545C227.882 363.785 227.56 364.128 227.345 364.538C227.13 364.947 227.031 365.408 227.058 365.87C227.086 366.331 227.238 366.777 227.5 367.158L250.346 400.157C251.292 401.526 253.572 401.526 254.521 400.157L277.367 367.158C277.631 366.778 277.786 366.332 277.815 365.869C277.844 365.407 277.745 364.945 277.53 364.535C277.315 364.124 276.992 363.781 276.595 363.541C276.198 363.301 275.743 363.175 275.28 363.176Z" fill="#393939"/>
<path d="M229.18 128.663H274.871C275.333 128.662 275.787 128.534 276.182 128.294C276.578 128.054 276.9 127.711 277.115 127.301C277.33 126.892 277.429 126.431 277.402 125.969C277.374 125.507 277.222 125.062 276.96 124.68L254.114 91.6816C253.168 90.3134 250.888 90.3134 249.939 91.6816L227.093 124.68C226.829 125.061 226.674 125.507 226.645 125.969C226.616 126.432 226.715 126.894 226.93 127.304C227.145 127.715 227.468 128.058 227.865 128.298C228.262 128.538 228.717 128.664 229.18 128.663Z" fill="#393939"/>
<path d="M279.26 235.166L233.366 221.738C228.054 220.208 224.357 215.236 224.357 209.712C224.357 202.785 229.966 197.176 236.893 197.176H265.067C270.251 197.176 275.35 198.748 279.6 201.638C282.192 203.38 285.677 202.955 287.886 200.788L302.675 186.339C305.692 183.407 305.267 178.52 301.91 175.928C291.498 167.769 278.495 163.222 265.152 163.18V142.782C265.152 139.043 262.092 135.983 258.353 135.983H244.754C241.015 135.983 237.955 139.043 237.955 142.782V163.18H236.893C209.824 163.18 188.066 186.424 190.573 214.004C192.358 233.594 207.316 249.529 226.184 255.053L269.741 267.802C275.053 269.374 278.75 274.304 278.75 279.828C278.75 286.755 273.141 292.364 266.214 292.364H238.04C232.856 292.364 227.756 290.792 223.507 287.902C220.915 286.16 217.43 286.585 215.22 288.752L200.432 303.2C197.415 306.132 197.84 311.019 201.197 313.611C211.608 321.77 224.612 326.317 237.955 326.36V346.757C237.955 350.497 241.015 353.556 244.754 353.556H258.353C262.092 353.556 265.152 350.497 265.152 346.757V326.275C284.954 325.892 303.524 314.121 310.069 295.381C319.205 269.204 303.864 242.347 279.26 235.166Z" fill="black" fill-opacity="0.71"/>
</svg>
