<svg width="100" height="100" viewBox="0 0 100 100" fill="none" xmlns="http://www.w3.org/2000/svg">
<rect x="50.1992" width="70.7112" height="70.7112" transform="rotate(45.2281 50.1992 0)" fill="#C4C4C4"/>
<path d="M55.0555 72.6351H45.9174C45.8248 72.6354 45.7341 72.661 45.655 72.7089C45.576 72.7569 45.5114 72.8256 45.4685 72.9075C45.4255 72.9895 45.4057 73.0816 45.4111 73.1739C45.4166 73.2663 45.4472 73.3554 45.4995 73.4317L50.0686 80.0315C50.258 80.3051 50.7139 80.3051 50.9037 80.0315L55.4728 73.4317C55.5257 73.3556 55.5567 73.2664 55.5625 73.1739C55.5683 73.0814 55.5486 72.9891 55.5056 72.907C55.4625 72.8248 55.3978 72.7561 55.3185 72.7082C55.2392 72.6603 55.1482 72.635 55.0555 72.6351Z" fill="#393939"/>
<path d="M45.8361 25.7327H54.9742C55.0668 25.7324 55.1575 25.7068 55.2366 25.6588C55.3156 25.6109 55.3802 25.5422 55.4231 25.4603C55.4661 25.3783 55.4859 25.2862 55.4805 25.1939C55.475 25.1015 55.4444 25.0124 55.3921 24.9361L50.823 18.3363C50.6336 18.0627 50.1777 18.0627 49.9879 18.3363L45.4188 24.9361C45.3659 25.0122 45.3349 25.1014 45.3291 25.1939C45.3233 25.2864 45.343 25.3787 45.386 25.4608C45.4291 25.543 45.4938 25.6117 45.5731 25.6596C45.6524 25.7075 45.7434 25.7328 45.8361 25.7327Z" fill="#393939"/>
<path d="M55.8519 47.0332L46.673 44.3475C45.6107 44.0416 44.8713 43.0472 44.8713 41.9423C44.8713 40.557 45.9931 39.4351 47.3784 39.4351H53.0132C54.0501 39.4351 55.07 39.7496 55.9199 40.3275C56.4383 40.676 57.1352 40.591 57.5772 40.1575L60.5348 37.2679C61.1382 36.6815 61.0533 35.7041 60.3818 35.1857C58.2996 33.5539 55.6989 32.6445 53.0302 32.636V28.5565C53.0302 27.8086 52.4183 27.1967 51.6704 27.1967H48.9508C48.2028 27.1967 47.5909 27.8086 47.5909 28.5565V32.636H47.3784C41.9646 32.636 37.6132 37.2849 38.1146 42.8007C38.4715 46.7187 41.4632 49.9058 45.2367 51.0107L53.9481 53.5604C55.0105 53.8749 55.7499 54.8607 55.7499 55.9656C55.7499 57.3509 54.628 58.4728 53.2427 58.4728H47.6079C46.571 58.4728 45.5512 58.1583 44.7013 57.5804C44.1828 57.2319 43.4859 57.3169 43.044 57.7504L40.0863 60.64C39.4829 61.2264 39.5679 62.2038 40.2393 62.7223C42.3216 64.3541 44.9223 65.2634 47.5909 65.2719V69.3514C47.5909 70.0993 48.2028 70.7113 48.9508 70.7113H51.6704C52.4183 70.7113 53.0302 70.0993 53.0302 69.3514V65.2549C56.9908 65.1784 60.7048 62.8242 62.0136 59.0762C63.8409 53.8409 60.7728 48.4695 55.8519 47.0332Z" fill="black" fill-opacity="0.71"/>
</svg>
