<svg width="19" height="22" viewBox="0 0 19 22" fill="none" xmlns="http://www.w3.org/2000/svg">
<path d="M5.54134 7.33325C5.10592 7.33325 4.73318 7.15374 4.42311 6.79471C4.11304 6.43568 3.95801 6.00409 3.95801 5.49992V3.66659C3.95801 3.16242 4.11304 2.73082 4.42311 2.37179C4.73318 2.01277 5.10592 1.83325 5.54134 1.83325H13.458C13.8934 1.83325 14.2662 2.01277 14.5762 2.37179C14.8863 2.73082 15.0413 3.16242 15.0413 3.66659V5.49992C15.0413 6.00409 14.8863 6.43568 14.5762 6.79471C14.2662 7.15374 13.8934 7.33325 13.458 7.33325H5.54134ZM5.54134 5.49992H13.458V3.66659H5.54134V5.49992ZM3.16634 20.1666C2.73092 20.1666 2.35818 19.9871 2.04811 19.628C1.73804 19.269 1.58301 18.8374 1.58301 18.3333V17.4166H17.4163V18.3333C17.4163 18.8374 17.2613 19.269 16.9512 19.628C16.6412 19.9871 16.2684 20.1666 15.833 20.1666H3.16634ZM1.58301 16.4999L4.33405 9.327C4.46599 8.99089 4.66391 8.72735 4.9278 8.53638C5.19169 8.3454 5.47537 8.24992 5.77884 8.24992H13.2205C13.524 8.24992 13.8077 8.3454 14.0715 8.53638C14.3354 8.72735 14.5334 8.99089 14.6653 9.327L17.4163 16.4999H1.58301ZM6.72884 14.6666H7.52051C7.62606 14.6666 7.71842 14.6208 7.79759 14.5291C7.87676 14.4374 7.91634 14.3305 7.91634 14.2083C7.91634 14.086 7.87676 13.9791 7.79759 13.8874C7.71842 13.7958 7.62606 13.7499 7.52051 13.7499H6.72884C6.62329 13.7499 6.53092 13.7958 6.45176 13.8874C6.37259 13.9791 6.33301 14.086 6.33301 14.2083C6.33301 14.3305 6.37259 14.4374 6.45176 14.5291C6.53092 14.6208 6.62329 14.6666 6.72884 14.6666ZM6.72884 12.8333H7.52051C7.62606 12.8333 7.71842 12.7874 7.79759 12.6958C7.87676 12.6041 7.91634 12.4971 7.91634 12.3749C7.91634 12.2527 7.87676 12.1458 7.79759 12.0541C7.71842 11.9624 7.62606 11.9166 7.52051 11.9166H6.72884C6.62329 11.9166 6.53092 11.9624 6.45176 12.0541C6.37259 12.1458 6.33301 12.2527 6.33301 12.3749C6.33301 12.4971 6.37259 12.6041 6.45176 12.6958C6.53092 12.7874 6.62329 12.8333 6.72884 12.8333ZM6.72884 10.9999H7.52051C7.62606 10.9999 7.71842 10.9541 7.79759 10.8624C7.87676 10.7708 7.91634 10.6638 7.91634 10.5416C7.91634 10.4194 7.87676 10.3124 7.79759 10.2208C7.71842 10.1291 7.62606 10.0833 7.52051 10.0833H6.72884C6.62329 10.0833 6.53092 10.1291 6.45176 10.2208C6.37259 10.3124 6.33301 10.4194 6.33301 10.5416C6.33301 10.6638 6.37259 10.7708 6.45176 10.8624C6.53092 10.9541 6.62329 10.9999 6.72884 10.9999ZM9.10384 14.6666H9.89551C10.0011 14.6666 10.0934 14.6208 10.1726 14.5291C10.2518 14.4374 10.2913 14.3305 10.2913 14.2083C10.2913 14.086 10.2518 13.9791 10.1726 13.8874C10.0934 13.7958 10.0011 13.7499 9.89551 13.7499H9.10384C8.99829 13.7499 8.90592 13.7958 8.82676 13.8874C8.74759 13.9791 8.70801 14.086 8.70801 14.2083C8.70801 14.3305 8.74759 14.4374 8.82676 14.5291C8.90592 14.6208 8.99829 14.6666 9.10384 14.6666ZM9.10384 12.8333H9.89551C10.0011 12.8333 10.0934 12.7874 10.1726 12.6958C10.2518 12.6041 10.2913 12.4971 10.2913 12.3749C10.2913 12.2527 10.2518 12.1458 10.1726 12.0541C10.0934 11.9624 10.0011 11.9166 9.89551 11.9166H9.10384C8.99829 11.9166 8.90592 11.9624 8.82676 12.0541C8.74759 12.1458 8.70801 12.2527 8.70801 12.3749C8.70801 12.4971 8.74759 12.6041 8.82676 12.6958C8.90592 12.7874 8.99829 12.8333 9.10384 12.8333ZM9.10384 10.9999H9.89551C10.0011 10.9999 10.0934 10.9541 10.1726 10.8624C10.2518 10.7708 10.2913 10.6638 10.2913 10.5416C10.2913 10.4194 10.2518 10.3124 10.1726 10.2208C10.0934 10.1291 10.0011 10.0833 9.89551 10.0833H9.10384C8.99829 10.0833 8.90592 10.1291 8.82676 10.2208C8.74759 10.3124 8.70801 10.4194 8.70801 10.5416C8.70801 10.6638 8.74759 10.7708 8.82676 10.8624C8.90592 10.9541 8.99829 10.9999 9.10384 10.9999ZM11.4788 14.6666H12.2705C12.3761 14.6666 12.4684 14.6208 12.5476 14.5291C12.6268 14.4374 12.6663 14.3305 12.6663 14.2083C12.6663 14.086 12.6268 13.9791 12.5476 13.8874C12.4684 13.7958 12.3761 13.7499 12.2705 13.7499H11.4788C11.3733 13.7499 11.2809 13.7958 11.2018 13.8874C11.1226 13.9791 11.083 14.086 11.083 14.2083C11.083 14.3305 11.1226 14.4374 11.2018 14.5291C11.2809 14.6208 11.3733 14.6666 11.4788 14.6666ZM11.4788 12.8333H12.2705C12.3761 12.8333 12.4684 12.7874 12.5476 12.6958C12.6268 12.6041 12.6663 12.4971 12.6663 12.3749C12.6663 12.2527 12.6268 12.1458 12.5476 12.0541C12.4684 11.9624 12.3761 11.9166 12.2705 11.9166H11.4788C11.3733 11.9166 11.2809 11.9624 11.2018 12.0541C11.1226 12.1458 11.083 12.2527 11.083 12.3749C11.083 12.4971 11.1226 12.6041 11.2018 12.6958C11.2809 12.7874 11.3733 12.8333 11.4788 12.8333ZM11.4788 10.9999H12.2705C12.3761 10.9999 12.4684 10.9541 12.5476 10.8624C12.6268 10.7708 12.6663 10.6638 12.6663 10.5416C12.6663 10.4194 12.6268 10.3124 12.5476 10.2208C12.4684 10.1291 12.3761 10.0833 12.2705 10.0833H11.4788C11.3733 10.0833 11.2809 10.1291 11.2018 10.2208C11.1226 10.3124 11.083 10.4194 11.083 10.5416C11.083 10.6638 11.1226 10.7708 11.2018 10.8624C11.2809 10.9541 11.3733 10.9999 11.4788 10.9999Z" fill="white"/>
</svg>
