<svg width="24" height="24" viewBox="0 0 24 24" fill="none" xmlns="http://www.w3.org/2000/svg">
<path d="M6 22C5.16667 22 4.45833 21.7083 3.875 21.125C3.29167 20.5417 3 19.8333 3 19V16H6V2L7.5 3.5L9 2L10.5 3.5L12 2L13.5 3.5L15 2L16.5 3.5L18 2L19.5 3.5L21 2V19C21 19.8333 20.7083 20.5417 20.125 21.125C19.5417 21.7083 18.8333 22 18 22H6ZM18 20C18.2833 20 18.5208 19.9042 18.7125 19.7125C18.9042 19.5208 19 19.2833 19 19V5H8V16H17V19C17 19.2833 17.0958 19.5208 17.2875 19.7125C17.4792 19.9042 17.7167 20 18 20ZM9 9V7H15V9H9ZM9 12V10H15V12H9ZM17 9C16.7167 9 16.4792 8.90417 16.2875 8.7125C16.0958 8.52083 16 8.28333 16 8C16 7.71667 16.0958 7.47917 16.2875 7.2875C16.4792 7.09583 16.7167 7 17 7C17.2833 7 17.5208 7.09583 17.7125 7.2875C17.9042 7.47917 18 7.71667 18 8C18 8.28333 17.9042 8.52083 17.7125 8.7125C17.5208 8.90417 17.2833 9 17 9ZM17 12C16.7167 12 16.4792 11.9042 16.2875 11.7125C16.0958 11.5208 16 11.2833 16 11C16 10.7167 16.0958 10.4792 16.2875 10.2875C16.4792 10.0958 16.7167 10 17 10C17.2833 10 17.5208 10.0958 17.7125 10.2875C17.9042 10.4792 18 10.7167 18 11C18 11.2833 17.9042 11.5208 17.7125 11.7125C17.5208 11.9042 17.2833 12 17 12ZM6 20H15V18H5V19C5 19.2833 5.09583 19.5208 5.2875 19.7125C5.47917 19.9042 5.71667 20 6 20Z" fill="#7B809A"/>
</svg>
