<svg width="24" height="24" viewBox="0 0 24 24" fill="none" xmlns="http://www.w3.org/2000/svg">
<path d="M12 21C10.4727 21 9.06818 20.6523 7.78636 19.9568C6.50455 19.2614 5.45455 18.3341 4.63636 17.175V19.3636H3V14.4545H7.90909V16.0909H5.88409C6.53864 17.0727 7.40114 17.8636 8.47159 18.4636C9.54205 19.0636 10.7182 19.3636 12 19.3636C13.0227 19.3636 13.9807 19.1693 14.8739 18.7807C15.767 18.392 16.5443 17.867 17.2057 17.2057C17.867 16.5443 18.392 15.767 18.7807 14.8739C19.1693 13.9807 19.3636 13.0227 19.3636 12H21C21 13.2409 20.7648 14.4068 20.2943 15.4977C19.8239 16.5886 19.1795 17.5432 18.3614 18.3614C17.5432 19.1795 16.5886 19.8239 15.4977 20.2943C14.4068 20.7648 13.2409 21 12 21ZM11.2636 17.7273V16.6636C10.6227 16.5136 10.1011 16.2375 9.69886 15.8352C9.29659 15.433 9 14.9045 8.80909 14.25L10.1591 13.7182C10.3227 14.2773 10.5784 14.6966 10.9261 14.9761C11.2739 15.2557 11.6727 15.3955 12.1227 15.3955C12.5727 15.3955 12.958 15.2898 13.2784 15.0784C13.5989 14.867 13.7591 14.5364 13.7591 14.0864C13.7591 13.6909 13.592 13.3705 13.258 13.125C12.9239 12.8795 12.3273 12.6 11.4682 12.2864C10.6636 12 10.0739 11.6591 9.69886 11.2636C9.32386 10.8682 9.13636 10.35 9.13636 9.70909C9.13636 9.15 9.33068 8.64205 9.71932 8.18523C10.108 7.72841 10.6364 7.43182 11.3045 7.29545V6.27273H12.7364V7.29545C13.2273 7.33636 13.6739 7.53409 14.0761 7.88864C14.4784 8.24318 14.7545 8.65909 14.9045 9.13636L13.5955 9.66818C13.4864 9.35455 13.3091 9.09205 13.0636 8.88068C12.8182 8.66932 12.4773 8.56364 12.0409 8.56364C11.5636 8.56364 11.1989 8.66591 10.9466 8.87045C10.6943 9.075 10.5682 9.35455 10.5682 9.70909C10.5682 10.0636 10.725 10.3432 11.0386 10.5477C11.3523 10.7523 11.9182 10.9909 12.7364 11.2636C13.7182 11.6182 14.3727 12.0341 14.7 12.5114C15.0273 12.9886 15.1909 13.5136 15.1909 14.0864C15.1909 14.4818 15.1227 14.8295 14.9864 15.1295C14.85 15.4295 14.6693 15.6852 14.4443 15.8966C14.2193 16.108 13.9568 16.2784 13.6568 16.408C13.3568 16.5375 13.0364 16.6364 12.6955 16.7045V17.7273H11.2636ZM3 12C3 10.7591 3.23523 9.59318 3.70568 8.50227C4.17614 7.41136 4.82045 6.45682 5.63864 5.63864C6.45682 4.82045 7.41136 4.17614 8.50227 3.70568C9.59318 3.23523 10.7591 3 12 3C13.5273 3 14.9318 3.34773 16.2136 4.04318C17.4955 4.73864 18.5455 5.66591 19.3636 6.825V4.63636H21V9.54545H16.0909V7.90909H18.1159C17.4614 6.92727 16.5989 6.13636 15.5284 5.53636C14.458 4.93636 13.2818 4.63636 12 4.63636C10.9773 4.63636 10.0193 4.83068 9.12614 5.21932C8.23295 5.60795 7.45568 6.13295 6.79432 6.79432C6.13295 7.45568 5.60795 8.23295 5.21932 9.12614C4.83068 10.0193 4.63636 10.9773 4.63636 12H3Z" fill="white"/>
</svg>
