<svg width="1206" height="313" viewBox="0 0 1206 313" fill="none" xmlns="http://www.w3.org/2000/svg">
<rect x="156.119" y="1" width="219.912" height="219.912" transform="rotate(45.2281 156.119 1)" fill="white"/>
<path d="M171.224 226.895H142.804C142.517 226.896 142.234 226.976 141.989 227.125C141.743 227.274 141.542 227.488 141.408 227.742C141.275 227.997 141.213 228.284 141.23 228.571C141.247 228.858 141.342 229.135 141.505 229.373L155.715 249.898C156.304 250.749 157.721 250.749 158.312 249.898L172.522 229.373C172.686 229.136 172.783 228.859 172.801 228.571C172.819 228.283 172.757 227.996 172.624 227.741C172.49 227.485 172.289 227.271 172.042 227.122C171.795 226.973 171.512 226.895 171.224 226.895Z" fill="#3D3D3D"/>
<path d="M142.55 81.0285H170.969C171.257 81.0276 171.539 80.9483 171.785 80.799C172.031 80.6497 172.232 80.4362 172.365 80.1814C172.499 79.9266 172.56 79.6401 172.543 79.3529C172.526 79.0657 172.431 78.7885 172.269 78.5513L158.059 58.026C157.47 57.1749 156.052 57.1749 155.462 58.026L141.252 78.5513C141.087 78.788 140.991 79.0653 140.973 79.353C140.955 79.6407 141.016 79.9279 141.15 80.1832C141.284 80.4385 141.485 80.6524 141.732 80.8014C141.978 80.9504 142.261 81.029 142.55 81.0285Z" fill="#3D3D3D"/>
<path d="M173.7 147.273L145.153 138.921C141.849 137.969 139.55 134.877 139.55 131.441C139.55 127.132 143.039 123.643 147.347 123.643H164.871C168.096 123.643 171.268 124.621 173.911 126.419C175.523 127.502 177.691 127.238 179.065 125.89L188.263 116.903C190.14 115.079 189.876 112.04 187.788 110.427C181.312 105.352 173.224 102.524 164.924 102.498V89.8106C164.924 87.4846 163.021 85.5815 160.695 85.5815H152.237C149.911 85.5815 148.008 87.4846 148.008 89.8106V102.498H147.347C130.51 102.498 116.977 116.956 118.537 134.11C119.647 146.295 128.951 156.207 140.686 159.643L167.779 167.573C171.083 168.551 173.382 171.617 173.382 175.053C173.382 179.361 169.893 182.85 165.585 182.85H148.061C144.836 182.85 141.664 181.872 139.021 180.075C137.409 178.991 135.241 179.256 133.867 180.604L124.669 189.59C122.792 191.414 123.056 194.454 125.145 196.066C131.62 201.141 139.708 203.969 148.008 203.996V216.683C148.008 219.009 149.911 220.912 152.237 220.912H160.695C163.021 220.912 164.924 219.009 164.924 216.683V203.943C177.241 203.705 188.792 196.383 192.863 184.727C198.545 168.445 189.004 151.74 173.7 147.273Z" fill="black" fill-opacity="0.71"/>
<path d="M838.274 214V98.2253H882.594C890.961 98.2253 897.914 99.5443 903.454 102.182C909.031 104.783 913.196 108.344 915.947 112.867C918.736 117.389 920.13 122.515 920.13 128.243C920.13 132.954 919.226 136.986 917.417 140.341C915.608 143.657 913.177 146.352 910.124 148.424C907.072 150.497 903.661 151.986 899.892 152.89V154.021C904 154.247 907.939 155.51 911.707 157.809C915.514 160.07 918.623 163.273 921.035 167.419C923.447 171.564 924.653 176.577 924.653 182.456C924.653 188.448 923.202 193.837 920.3 198.624C917.398 203.372 913.026 207.122 907.185 209.873C901.343 212.624 893.994 214 885.138 214H838.274ZM859.247 196.476H881.803C889.415 196.476 894.899 195.025 898.253 192.123C901.645 189.183 903.341 185.414 903.341 180.817C903.341 177.387 902.493 174.297 900.797 171.546C899.101 168.757 896.689 166.571 893.561 164.988C890.433 163.367 886.702 162.557 882.368 162.557H859.247V196.476ZM859.247 147.463H879.994C883.612 147.463 886.871 146.804 889.773 145.485C892.675 144.128 894.955 142.225 896.614 139.775C898.31 137.288 899.157 134.348 899.157 130.957C899.157 126.472 897.575 122.778 894.409 119.877C891.281 116.975 886.627 115.524 880.446 115.524H859.247V147.463ZM966.98 215.752C961.478 215.752 956.522 214.773 952.113 212.813C947.741 210.815 944.274 207.876 941.711 203.994C939.186 200.112 937.923 195.326 937.923 189.635C937.923 184.736 938.828 180.685 940.637 177.481C942.446 174.278 944.914 171.715 948.042 169.793C951.17 167.871 954.694 166.42 958.614 165.44C962.571 164.423 966.66 163.688 970.881 163.236C975.968 162.708 980.095 162.237 983.261 161.822C986.427 161.37 988.726 160.692 990.158 159.787C991.627 158.845 992.362 157.394 992.362 155.434V155.095C992.362 150.836 991.1 147.539 988.575 145.202C986.05 142.866 982.413 141.697 977.664 141.697C972.652 141.697 968.676 142.79 965.736 144.976C962.834 147.162 960.875 149.744 959.857 152.721L940.75 150.007C942.257 144.731 944.745 140.322 948.212 136.779C951.679 133.199 955.919 130.523 960.931 128.752C965.944 126.943 971.484 126.038 977.551 126.038C981.735 126.038 985.899 126.528 990.045 127.508C994.19 128.488 997.978 130.109 1001.41 132.37C1004.84 134.593 1007.59 137.627 1009.66 141.471C1011.77 145.315 1012.83 150.12 1012.83 155.887V214H993.154V202.072H992.475C991.232 204.484 989.479 206.745 987.218 208.856C984.994 210.929 982.187 212.606 978.795 213.887C975.441 215.131 971.503 215.752 966.98 215.752ZM972.294 200.715C976.402 200.715 979.963 199.905 982.978 198.284C985.993 196.626 988.311 194.44 989.931 191.727C991.59 189.013 992.419 186.055 992.419 182.852V172.62C991.778 173.147 990.685 173.637 989.14 174.089C987.633 174.542 985.937 174.937 984.052 175.277C982.168 175.616 980.302 175.917 978.456 176.181C976.609 176.445 975.007 176.671 973.651 176.859C970.598 177.274 967.866 177.952 965.454 178.894C963.042 179.837 961.139 181.156 959.744 182.852C958.35 184.51 957.653 186.658 957.653 189.296C957.653 193.065 959.028 195.91 961.779 197.832C964.53 199.754 968.035 200.715 972.294 200.715ZM1102.03 150.12L1083.38 152.156C1082.85 150.271 1081.93 148.5 1080.61 146.842C1079.33 145.183 1077.59 143.846 1075.41 142.828C1073.22 141.81 1070.54 141.302 1067.38 141.302C1063.12 141.302 1059.54 142.225 1056.64 144.072C1053.77 145.918 1052.36 148.311 1052.4 151.251C1052.36 153.776 1053.28 155.83 1055.17 157.413C1057.09 158.996 1060.26 160.296 1064.66 161.313L1079.48 164.479C1087.69 166.25 1093.8 169.058 1097.79 172.902C1101.82 176.746 1103.86 181.778 1103.9 187.996C1103.86 193.461 1102.26 198.284 1099.09 202.468C1095.96 206.613 1091.61 209.854 1086.03 212.191C1080.46 214.528 1074.05 215.696 1066.81 215.696C1056.19 215.696 1047.63 213.472 1041.15 209.025C1034.67 204.541 1030.8 198.303 1029.56 190.314L1049.51 188.392C1050.42 192.311 1052.34 195.27 1055.28 197.267C1058.22 199.264 1062.05 200.263 1066.76 200.263C1071.62 200.263 1075.52 199.264 1078.46 197.267C1081.44 195.27 1082.92 192.801 1082.92 189.861C1082.92 187.374 1081.96 185.32 1080.04 183.7C1078.16 182.079 1075.22 180.835 1071.22 179.969L1056.41 176.859C1048.08 175.126 1041.92 172.205 1037.93 168.097C1033.93 163.952 1031.95 158.713 1031.99 152.382C1031.95 147.03 1033.4 142.395 1036.34 138.475C1039.32 134.518 1043.45 131.465 1048.72 129.317C1054.04 127.131 1060.16 126.038 1067.1 126.038C1077.27 126.038 1085.28 128.205 1091.12 132.539C1097 136.873 1100.64 142.734 1102.03 150.12ZM1159.21 215.696C1150.51 215.696 1142.99 213.887 1136.66 210.269C1130.36 206.613 1125.52 201.45 1122.13 194.78C1118.74 188.071 1117.04 180.176 1117.04 171.093C1117.04 162.161 1118.74 154.323 1122.13 147.577C1125.56 140.793 1130.34 135.517 1136.49 131.748C1142.63 127.942 1149.85 126.038 1158.14 126.038C1163.49 126.038 1168.54 126.905 1173.29 128.639C1178.07 130.335 1182.3 132.973 1185.95 136.553C1189.64 140.133 1192.55 144.693 1194.66 150.233C1196.77 155.736 1197.82 162.293 1197.82 169.906V176.181H1126.65V162.388H1178.21C1178.17 158.468 1177.32 154.982 1175.66 151.929C1174 148.839 1171.69 146.408 1168.71 144.637C1165.77 142.866 1162.34 141.98 1158.42 141.98C1154.24 141.98 1150.56 142.998 1147.4 145.033C1144.23 147.03 1141.76 149.668 1139.99 152.947C1138.26 156.188 1137.37 159.749 1137.34 163.631V175.672C1137.34 180.722 1138.26 185.056 1140.11 188.674C1141.95 192.255 1144.53 195.006 1147.85 196.928C1151.17 198.812 1155.05 199.754 1159.5 199.754C1162.47 199.754 1165.17 199.34 1167.58 198.511C1169.99 197.644 1172.08 196.381 1173.85 194.723C1175.63 193.065 1176.96 191.011 1177.87 188.561L1196.97 190.709C1195.77 195.759 1193.47 200.169 1190.08 203.938C1186.72 207.669 1182.43 210.57 1177.19 212.643C1171.95 214.678 1165.96 215.696 1159.21 215.696Z" fill="white"/>
<path d="M485.419 214V98.2253H528.835C537.729 98.2253 545.191 99.8835 551.221 103.2C557.288 106.516 561.867 111.077 564.958 116.88C568.086 122.647 569.65 129.204 569.65 136.553C569.65 143.977 568.086 150.573 564.958 156.339C561.83 162.105 557.213 166.646 551.108 169.963C545.002 173.241 537.484 174.881 528.552 174.881H499.778V157.639H525.726C530.926 157.639 535.185 156.734 538.501 154.926C541.818 153.117 544.268 150.629 545.85 147.463C547.471 144.298 548.281 140.661 548.281 136.553C548.281 132.445 547.471 128.827 545.85 125.699C544.268 122.571 541.799 120.14 538.445 118.407C535.128 116.635 530.851 115.75 525.612 115.75H506.392V214H485.419ZM607.426 98.2253V214H586.962V98.2253H607.426ZM653.456 215.752C647.954 215.752 642.998 214.773 638.589 212.813C634.217 210.815 630.75 207.876 628.187 203.994C625.662 200.112 624.4 195.326 624.4 189.635C624.4 184.736 625.304 180.685 627.113 177.481C628.922 174.278 631.391 171.715 634.519 169.793C637.647 167.871 641.17 166.42 645.09 165.44C649.047 164.423 653.136 163.688 657.357 163.236C662.445 162.708 666.572 162.237 669.737 161.822C672.903 161.37 675.202 160.692 676.634 159.787C678.104 158.845 678.839 157.394 678.839 155.434V155.095C678.839 150.836 677.576 147.539 675.051 145.202C672.526 142.866 668.889 141.697 664.141 141.697C659.128 141.697 655.152 142.79 652.213 144.976C649.311 147.162 647.351 149.744 646.334 152.721L627.226 150.007C628.734 144.731 631.221 140.322 634.688 136.779C638.155 133.199 642.395 130.523 647.408 128.752C652.42 126.943 657.96 126.038 664.028 126.038C668.211 126.038 672.375 126.528 676.521 127.508C680.667 128.488 684.454 130.109 687.884 132.37C691.313 134.593 694.064 137.627 696.137 141.471C698.248 145.315 699.303 150.12 699.303 155.887V214H679.63V202.072H678.952C677.708 204.484 675.956 206.745 673.694 208.856C671.471 210.929 668.663 212.606 665.271 213.887C661.917 215.131 657.979 215.752 653.456 215.752ZM658.77 200.715C662.878 200.715 666.44 199.905 669.455 198.284C672.47 196.626 674.787 194.44 676.408 191.727C678.066 189.013 678.895 186.055 678.895 182.852V172.62C678.255 173.147 677.162 173.637 675.616 174.089C674.109 174.542 672.413 174.937 670.529 175.277C668.644 175.616 666.779 175.917 664.932 176.181C663.085 176.445 661.484 176.671 660.127 176.859C657.074 177.274 654.342 177.952 651.93 178.894C649.518 179.837 647.615 181.156 646.221 182.852C644.826 184.51 644.129 186.658 644.129 189.296C644.129 193.065 645.504 195.91 648.256 197.832C651.007 199.754 654.512 200.715 658.77 200.715ZM740.344 163.122V214H719.88V127.169H739.44V141.923H740.457C742.454 137.062 745.639 133.199 750.011 130.335C754.42 127.47 759.866 126.038 766.348 126.038C772.34 126.038 777.56 127.32 782.007 129.882C786.492 132.445 789.959 136.157 792.409 141.019C794.896 145.881 796.121 151.779 796.083 158.713V214H775.619V161.879C775.619 156.075 774.112 151.534 771.097 148.255C768.119 144.976 763.993 143.337 758.716 143.337C755.136 143.337 751.952 144.128 749.163 145.711C746.412 147.256 744.245 149.499 742.662 152.438C741.117 155.378 740.344 158.939 740.344 163.122Z" fill="white"/>
<path d="M392 1L393 312" stroke="white" stroke-width="10"/>
</svg>
