<svg width="512" height="512" viewBox="0 0 512 512" fill="none" xmlns="http://www.w3.org/2000/svg">
<g clip-path="url(#clip0_306_23)">
<path d="M260.131 83.9939L177.108 209.005L130.137 279.855L31.7236 428.006H167.941L232.473 330.057C234.357 331.894 235.334 333.109 235.334 333.109C252.889 344.426 269.473 353.161 285.178 359.54C287.99 360.695 290.78 361.784 293.535 362.794C290.776 361.784 287.993 360.709 285.178 359.552L260.131 426.647H399.126V367.992C391.36 370.428 383.175 372.27 374.555 373.381C383.175 372.271 391.361 370.416 399.126 367.98C476.572 343.62 512 260.172 512 260.172C473.631 289.868 434.278 297.215 399.126 294.34V83.9939H260.131ZM177.108 209.005C39.8378 188.404 0 328.996 0 328.996C48.7457 287.264 93.2087 276.681 130.125 279.855L177.108 209.005ZM379.848 106.097L318.487 270.33C302.568 262.248 290.697 254.516 284.654 250.683L379.848 106.097ZM309.761 368.028C315.052 369.498 320.237 370.707 325.307 371.664C320.234 370.707 315.055 369.5 309.761 368.028ZM368.01 374.072C363.592 374.439 359.066 374.61 354.431 374.573C359.066 374.619 363.592 374.434 368.01 374.072Z" fill="#BABABA"/>
</g>
<defs>
<clipPath id="clip0_306_23">
<rect width="512" height="512" fill="white"/>
</clipPath>
</defs>
</svg>
