<svg width="512" height="512" viewBox="0 0 512 512" fill="none" xmlns="http://www.w3.org/2000/svg">
<path d="M58.4982 0L57.3945 180.189L56.2812 360.385L99.8984 436.105C123.886 477.749 145.627 511.903 148.214 512C153.174 512.189 355.866 441.995 386.88 429.348C409.922 419.951 440.362 386.297 449.151 360.502C467.162 307.643 447.139 248.639 401.242 219.331C390.406 212.412 375.796 205.39 368.782 203.732C349.454 199.164 349.416 199.007 360.489 175.224C382.915 127.056 370.774 68.1868 331.242 33.3896C297.505 3.69317 278.749 0.0240851 160.509 0.0083623L58.4982 0ZM81.8758 27.0554L178.574 28.4C268.117 29.6498 276.53 30.4312 292.274 38.9266C348.573 69.3058 362.228 135.428 322.849 187.021C316.827 194.911 309.998 195.674 227.812 197.647L139.257 199.772L137.132 249.757L135.007 299.733L110.359 314.576C96.7998 322.736 84.8452 329.412 83.7936 329.412C82.7414 329.412 81.8758 261.378 81.8758 178.229V27.0554ZM166.885 223.15H216.48C243.754 223.15 265.272 223.924 264.298 224.877C263.324 225.829 242.451 238.262 217.916 252.505C193.381 266.748 171.863 278.406 170.098 278.406C168.333 278.406 166.885 265.974 166.885 250.778V223.15ZM329.939 223.483C334.45 223.706 340.084 224.737 348.236 226.446C361.535 229.236 379.625 236.283 388.433 242.112C419.74 262.83 436.423 308.339 426.38 345.634C421.521 363.681 398.244 393.864 382.821 402.119C378.446 404.46 328.682 422.529 272.242 442.274C215.803 462.018 168.975 478.179 168.172 478.179C167.369 478.179 167.231 440.675 167.865 394.838L169.011 311.497L232.768 274.629C267.834 254.352 302.727 234.075 310.297 229.568C318.032 224.963 322.422 223.109 329.939 223.483ZM137.132 329.769V384.851C137.132 415.142 136.244 439.925 135.156 439.925C134.07 439.925 131.384 436.567 129.187 432.461C126.99 428.356 116.528 410.333 105.934 392.414L86.6742 359.83L111.903 344.804L137.132 329.769Z" fill="#BABABA"/>
</svg>
