<svg width="512" height="512" viewBox="0 0 512 512" fill="none" xmlns="http://www.w3.org/2000/svg">
<g clip-path="url(#clip0_306_43)">
<path fill-rule="evenodd" clip-rule="evenodd" d="M183.086 20.1374C167.765 20.0603 152.395 20.7172 138.838 26.2599C169.188 67.3492 192.657 101.457 219.567 139.056C222.923 143.798 225.098 150.039 224.768 159.457L139.116 285.945C137.4 286.529 132.24 287.037 132.24 287.037L123.448 287.389L77.7268 219.865L2.81577 220.919L12.6631 227.251L87.2226 338.738C90.6275 343.48 92.8346 349.719 92.4994 359.136C92.3797 361.251 92.8336 362.408 90.0352 368.987L12.3115 485.399L1.75788 486.103L0 490.322L168.817 491.376C171.55 490.819 174.376 490.634 176.203 486.454L257.075 358.785C259.949 352.067 255.396 347.612 252.875 342.961L218.056 291.26L258.747 225.591C289.544 266.677 313.922 300.886 341.228 338.482C344.633 343.223 346.837 349.463 346.502 358.88C346.382 360.994 346.839 362.148 344.041 368.727L266.314 485.14L255.466 486.59L253.708 490.813L422.525 491.867C425.258 491.309 428.081 491.122 429.908 486.942L511.081 358.528C513.955 351.81 509.399 347.356 506.878 342.704L472.059 291.003C444.993 254.691 444.587 254.689 422.468 221.778L348.383 220.007L348.741 219.51L386.959 159.105C389.791 152.387 385.3 147.93 382.816 143.278L348.504 91.5743C321.831 55.2593 321.427 55.2559 299.628 22.3423L210.211 20.1726C201.453 20.4943 192.278 20.1865 183.086 20.1374Z" fill="#BABABA"/>
</g>
<defs>
<clipPath id="clip0_306_43">
<rect width="512" height="512" fill="white"/>
</clipPath>
</defs>
</svg>
