<svg width="512" height="512" viewBox="0 0 512 512" fill="none" xmlns="http://www.w3.org/2000/svg">
<path d="M218.328 433.746H243.493V304.81H218.328V433.746Z" fill="black"/>
<path d="M266.383 433.746H307.604V256.756H266.383V433.746Z" fill="black"/>
<path d="M195.76 133.494C195.76 133.494 237.316 92.8735 307.338 106.238C307.338 106.238 338.158 111.03 361.786 132.011C361.786 132.011 365.298 135.304 367.987 132.606C367.987 132.606 371.419 129.917 367.61 125.894C367.61 125.894 347.299 97.7277 307.219 85.2771C307.219 85.2771 252.148 65.5599 195.574 92.2018C195.574 92.2018 160.75 106.634 141.436 145.951C141.436 145.951 113.903 154.844 93.2636 166.42C93.2636 166.42 87.1622 168.836 89.4644 173.577C89.4644 173.577 91.4398 176.983 96.7787 174.454C96.7787 174.454 115.949 167.838 134.424 163.708C134.424 163.708 119.56 202.247 135.08 250.083C141.983 271.378 154.584 293.053 173.844 310.477C173.844 310.477 176.98 313.774 180.396 311.526C180.396 311.526 183.371 309.364 181.277 305.836C181.277 305.836 165.915 282.726 159.956 249.858C154.986 223.059 157.327 186.053 175.938 156.715C175.938 156.715 246.804 146.828 307.204 169.572C307.204 169.572 409.791 203.048 383.969 265.143C383.969 265.143 376.472 286.726 348.148 306.224C348.148 306.224 343.405 308.986 345.974 312.946C345.974 312.946 348.116 316.03 352.973 314.055C352.973 314.055 396.34 299.952 415.063 265.111C415.063 265.111 453.026 207.007 363.487 159.601C363.487 159.601 338.873 146.446 307.22 139.409C307.22 139.409 250.19 125.301 195.764 133.503" fill="black"/>
</svg>
