<svg width="512" height="512" viewBox="0 0 512 512" fill="none" xmlns="http://www.w3.org/2000/svg">
<g clip-path="url(#clip0_306_159)">
<path d="M55.484 39.1987C55.484 39.1987 52.2203 59.0585 48.7947 79.9658C57.7681 81.6532 69.2233 83.9084 76.7141 85.8185C86.2662 88.2541 95.6556 91.3218 104.961 94.5743C118.237 99.2146 131.466 104.082 144.267 109.906C156.031 115.258 167.405 121.464 178.622 127.883C189.109 133.884 199.366 140.3 209.382 147.058C218.942 153.508 228.304 160.269 237.345 167.429C245.191 173.643 252.702 180.278 260.115 187.003C266.463 192.762 278.691 204.782 278.691 204.782L370.058 144.006C370.058 144.006 375.067 141.293 377.827 141.041C380.722 140.777 384.441 140.485 386.404 142.629C387.899 144.263 387.467 147.071 387.031 149.242C386.487 151.947 383.125 156.539 383.125 156.539L305.232 235.526C305.232 235.526 321.067 256.342 328.395 267.164C336.365 278.931 344.275 290.795 350.993 303.319C356.857 314.25 361.404 325.842 366.375 337.207C369.675 344.752 373.102 352.254 375.961 359.977C379.894 370.6 383.272 381.431 386.349 392.333C389.551 403.678 392.441 415.126 394.738 426.689C396.444 435.278 397.63 443.965 398.731 452.653C399.573 459.291 400.523 465.939 400.728 472.627C400.73 472.684 400.736 472.744 400.739 472.801H443.643L512 39.1985L55.484 39.1987ZM40.823 128.847C24.865 227.03 1.44483 373.311 0.165043 394.184C-0.409347 403.552 0.644948 413.08 1.34692 422.317C1.91015 429.728 8.01064 445.299 16.0276 453.549C23.3862 461.12 34.2494 464.597 44.2988 467.836C54.466 471.113 75.9583 472.802 75.9583 472.802H351.587C351.415 461.976 348.685 451.333 346.801 440.67C345.074 430.898 343.29 421.116 340.808 411.508C338.017 400.702 334.57 390.063 330.82 379.551C326.624 367.79 322.05 356.144 316.839 344.796C312.675 335.731 308.056 326.865 303.058 318.231C297.627 308.849 291.494 299.887 285.481 290.867C281.26 284.535 272.498 272.092 272.498 272.092L143.872 348.302L138.716 343.149L237.439 233.549C237.439 233.549 230.744 227.054 227.269 223.945C221.843 219.09 216.161 214.529 210.605 209.822C203.826 204.078 197.428 197.85 190.266 192.592C182.454 186.856 174.01 182.026 165.691 177.055C158.453 172.729 151.113 168.569 143.66 164.626C134.838 159.96 125.975 155.332 116.824 151.35C109.255 148.057 101.429 145.389 93.6624 142.594C86.2658 139.933 78.8784 137.218 71.3465 134.968C64.454 132.909 57.5443 130.756 50.4441 129.6C47.514 129.123 43.2477 128.936 40.823 128.847Z" fill="black"/>
</g>
<defs>
<clipPath id="clip0_306_159">
<rect width="512" height="512" fill="white"/>
</clipPath>
</defs>
</svg>
