<svg width="512" height="512" viewBox="0 0 512 512" fill="none" xmlns="http://www.w3.org/2000/svg">
<g clip-path="url(#clip0_306_53)">
<path fill-rule="evenodd" clip-rule="evenodd" d="M0 170.667L106.567 241.778L234.566 156.445L181.283 120.789L250.591 74.7172L399.825 174.272L154.641 337.728L207.925 373.383L512 170.667L256 0L0 170.667ZM512 341.333L405.234 270.223L277.233 355.556L330.516 391.011L261.208 437.283L111.975 337.728L357.158 174.272L303.874 138.617L0 341.333L256 512L512 341.333ZM512 71.1111L458.516 106.767L405.234 71.1111L512 0V71.1111ZM0 440.889L53.283 405.233L106.567 440.889L0 512V440.889Z" fill="#BABABA"/>
</g>
<defs>
<clipPath id="clip0_306_53">
<rect width="512" height="512" fill="white"/>
</clipPath>
</defs>
</svg>
