<svg width="512" height="512" viewBox="0 0 512 512" fill="none" xmlns="http://www.w3.org/2000/svg">
<g clip-path="url(#clip0_306_59)">
<path d="M155.901 357.311L154.985 358.197C140.223 373.237 123.138 381.208 105.532 381.208C68.7838 381.208 42.1081 353.64 42.1081 315.601C42.1081 277.632 68.7838 250.025 105.532 250.025C123.138 250.025 140.223 258.028 154.985 273.108L155.901 274.02L179.534 245.443L178.903 244.668C159.248 221.442 135.665 210.136 106.673 210.136C77.5806 210.136 50.9863 219.927 31.8198 237.584C10.995 256.705 0 283.671 0 315.601C0 347.516 10.995 374.549 31.8198 393.675C50.9863 411.414 77.5806 421.151 106.673 421.151C135.665 421.151 159.248 409.85 178.903 386.615L179.534 385.894L155.901 357.311Z" fill="#BABABA"/>
<path d="M203.416 417.261H245.167V213.447H203.416V417.261Z" fill="#BABABA"/>
<path d="M408.709 372.943C397.571 379.726 387.204 383.136 377.895 383.136C364.406 383.136 358.31 376.016 358.31 360.158V252.014H400.831V213.633H358.31V150.215L317.388 172.115V213.633H282.086V252.014H317.388V367.057C317.388 398.4 335.955 419.812 363.67 420.369C382.489 420.737 393.834 415.132 400.724 411.033L401.127 410.733L411.179 371.435L408.709 372.943Z" fill="#BABABA"/>
<path d="M443.289 417.261H485.068V213.447H443.289V417.261Z" fill="#BABABA"/>
<path fill-rule="evenodd" clip-rule="evenodd" d="M510.075 177.283C471.856 123.148 408.385 90.8496 343.808 90.8496C279.258 90.8496 215.775 123.148 177.619 177.283L175.662 180.068H223.785L224.318 179.491C257.072 145.685 299.829 127.807 343.808 127.807C387.794 127.807 430.542 145.685 463.359 179.491L463.891 180.068H511.999L510.075 177.283Z" fill="#BABABA"/>
</g>
<defs>
<clipPath id="clip0_306_59">
<rect width="512" height="512" fill="white"/>
</clipPath>
</defs>
</svg>
