<svg width="512" height="512" viewBox="0 0 512 512" fill="none" xmlns="http://www.w3.org/2000/svg">
<g clip-path="url(#clip0_306_75)">
<path d="M237.293 164.004V216.793H280.344V249.081H237.293V298.282C237.293 309.045 242.418 313.658 252.669 314.683C264.456 316.22 273.682 311.095 280.344 308.02L281.369 307.507L294.695 336.208L294.182 336.721C276.757 345.433 265.994 347.996 252.669 347.996C220.38 347.996 202.955 330.058 202.955 297.77V181.942L237.293 164.004ZM432.048 220.38H431.536V343.896H465.874V247.543C469.974 247.031 474.074 246.518 482.274 246.518C490.474 246.518 495.6 247.543 501.237 249.081H501.75L512 217.305H510.975C500.725 214.743 492.524 213.718 479.199 213.718C466.386 213.718 446.398 215.255 432.048 220.38ZM294.695 281.882C294.695 239.343 314.17 213.718 353.634 213.718C392.585 213.718 413.598 235.243 413.598 277.782L355.684 305.97L340.821 277.782L377.722 258.819C378.234 250.619 367.471 245.493 354.146 246.006C338.771 247.031 330.058 254.206 330.058 280.344C330.058 305.97 342.358 314.683 360.809 314.683C377.209 314.683 393.097 312.12 401.297 309.557H401.81L412.06 340.308H411.548C397.71 344.921 379.259 346.971 360.809 346.971C317.245 346.971 294.695 324.933 294.695 281.882ZM66.6266 220.38H66.1141V343.896H100.452V247.543C106.603 246.518 111.215 246.518 120.44 246.518C137.353 246.518 145.554 253.694 145.554 268.044V344.408H179.892V270.094C179.892 234.731 158.366 213.718 123.003 213.718C102.502 213.718 79.4394 216.28 66.6266 220.38ZM0 343.896H34.3383V216.793H0V343.896Z" fill="#BABABA"/>
</g>
<defs>
<clipPath id="clip0_306_75">
<rect width="512" height="512" fill="white"/>
</clipPath>
</defs>
</svg>
