<svg width="512" height="512" viewBox="0 0 512 512" fill="none" xmlns="http://www.w3.org/2000/svg">
<path fill-rule="evenodd" clip-rule="evenodd" d="M87.331 0L82.9643 0.0895631L78.6934 0.450872L74.4564 0.993672L70.312 1.73117L66.1984 2.69399L62.2114 3.83887L58.2892 5.17822L54.4626 6.71498L50.6978 8.41841L47.0625 10.3009L43.5507 12.3777L40.1037 14.5904L36.8141 16.9541L33.6171 19.5155L30.5497 22.2126L27.6396 25.027L24.8222 27.9926L22.196 31.0662L19.6995 34.3033L17.3264 37.6608L15.1447 41.1264L13.1203 44.709L11.2533 48.3844L9.54369 52.1616L8.05935 56.0345L6.72931 59.9937L5.5906 64.061L4.64322 68.1869L3.91493 72.3869L3.37492 76.6332L3.02928 80.9844L2.93359 85.3818V426.721L3.02928 431.103L3.37492 435.426L3.91493 439.712L4.64322 443.903L5.5906 448.032L6.72931 452.096L8.05935 456.034L9.54369 459.904L11.2533 463.712L13.1203 467.362L15.1447 470.945L17.3264 474.402L19.6995 477.762L22.196 480.962L24.8222 484.063L27.6396 487.041L30.5497 489.856L33.6171 492.544L36.8141 495.071L40.1037 497.441L43.5507 499.648L47.0625 501.697L50.6978 503.585L54.4626 505.313L58.2892 506.816L62.2114 508.162L66.1984 509.313L70.312 510.272L74.4564 511.01L78.6934 511.553L82.9643 511.904L87.331 512H424.692L429.068 511.904L433.326 511.553L437.57 511.01L441.723 510.272L445.8 509.313L449.821 508.162L453.734 506.816L457.56 505.313L461.297 503.585L464.93 501.697L468.472 499.648L471.894 497.441L475.187 495.071L478.372 492.544L481.452 489.856L484.356 487.041L487.17 484.063L489.805 480.962L492.336 477.762L494.672 474.402L496.844 470.945L498.869 467.362L500.745 463.712L502.458 459.904L503.93 456.034L505.272 452.096L506.402 448.032L507.355 443.903L508.083 439.712L508.62 435.426L508.963 431.103L509.068 426.721V85.3818L508.963 80.9844L508.62 76.6332L508.083 72.387L507.355 68.187L506.402 64.0611L505.272 59.9938L503.93 56.0346L502.458 52.1618L500.745 48.3845L498.869 44.7092L496.844 41.1264L494.672 37.6609L492.336 34.3034L489.805 31.0663L487.17 27.9926L484.356 25.027L481.452 22.2127L478.372 19.5156L475.187 16.9542L471.894 14.5904L468.472 12.3778L464.93 10.301L461.297 8.41853L457.56 6.71504L453.734 5.17834L449.821 3.83899L445.8 2.69404L441.723 1.73128L437.57 0.993787L433.326 0.45093L429.068 0.0896208L424.692 5.7671e-05L87.331 0ZM413.407 255.938H450.577L417.128 290.439H389.679L413.407 255.938ZM45.0999 255.961H84.4518V426.654H45.0999V255.961ZM159.585 255.964V298.686H183.995V327.839H159.582V373.177V374.619L159.613 376.026L159.672 377.371L159.733 378.714L159.838 379.994L159.955 381.21L160.119 382.426L160.267 383.577L160.492 384.666L160.715 385.756L160.999 386.746L161.279 387.74L161.637 388.666L162.011 389.53L162.427 390.394L162.875 391.162L163.35 391.931L163.887 392.634L164.452 393.276L165.078 393.884L165.717 394.428L166.445 394.97L167.204 395.417L167.994 395.834L168.843 396.217L169.766 396.538L170.719 396.795L171.731 397.02L172.802 397.211L173.935 397.34L175.11 397.402L176.376 397.432L177.805 397.402L179.128 397.306L180.366 397.211L181.468 397.05L182.449 396.89L183.239 396.698L183.909 396.507L184.415 396.316V426.043L182.48 426.781L180.514 427.484L179.471 427.802L178.428 428.122L177.329 428.409L176.123 428.666L174.885 428.922L173.531 429.147L172.102 429.342L170.556 429.499L168.917 429.629L167.102 429.725L165.18 429.786L163.097 429.817L161.832 429.786L160.597 429.756L159.36 429.691L158.153 429.561L156.95 429.435L155.786 429.308L154.611 429.117L153.481 428.892L152.333 428.667L151.228 428.411L150.121 428.154L149.047 427.837L148.001 427.516L146.957 427.165L145.945 426.813L144.933 426.397L143.986 426.014L143.004 425.564L142.088 425.116L141.168 424.669L140.283 424.157L139.431 423.675L138.576 423.163L137.783 422.62L136.993 422.077L136.203 421.5L135.475 420.926L134.746 420.349L134.083 419.741L133.419 419.133L132.787 418.494L132.154 417.853L131.488 417.118L130.824 416.319L130.192 415.516L129.59 414.686L128.991 413.788L128.42 412.893L127.883 411.965L127.377 411.005L126.871 410.045L126.396 409.021L125.951 407.996L125.51 406.91L125.1 405.82L124.72 404.7L124.341 403.549L123.992 402.364L123.674 401.148L123.39 399.932L123.106 398.655L122.853 397.374L122.6 396.063L122.378 394.717L122.19 393.341L122.029 391.965L121.872 390.523L121.745 389.085L121.619 387.613L121.523 386.111L121.461 384.605L121.427 383.037L121.396 381.469L121.365 379.868V327.842H103.43V298.689H121.365V255.967L159.585 255.964ZM258.533 294.998H260.779L264.754 295.078L268.58 295.307L272.256 295.652L275.771 296.133L279.119 296.766L282.319 297.534L285.386 298.408L288.26 299.432L291.012 300.546L293.604 301.796L296.073 303.135L298.381 304.61L300.569 306.178L302.625 307.848L304.559 309.594L306.331 311.464L307.969 313.405L309.515 315.454L310.916 317.578L312.209 319.775L313.373 322.049L314.459 324.382L315.366 326.792L316.23 329.276L316.959 331.807L317.554 334.396L318.091 337.062L318.508 339.775L318.82 342.531L319.042 345.314L319.193 348.131L319.236 351.008V426.659H287.216L282.915 413.377H282.467L281.649 414.337L280.801 415.266L279.909 416.161L278.999 417.025L278.076 417.889L277.095 418.722L276.082 419.522L275.039 420.29L273.999 421.027L272.882 421.762L271.781 422.435L270.648 423.104L269.472 423.746L268.266 424.32L267.031 424.897L265.797 425.44L264.532 425.953L263.236 426.465L261.912 426.912L260.585 427.329L259.218 427.712L257.832 428.067L256.431 428.384L255.018 428.705L253.558 428.961L252.102 429.183L250.611 429.378L249.139 429.535L247.621 429.665L246.103 429.73L244.538 429.791L242.961 429.822L240.372 429.757L237.838 429.599L235.397 429.309L233.03 428.926L230.753 428.445L228.506 427.868L226.393 427.198L224.337 426.43L222.344 425.597L220.437 424.668L218.607 423.646L216.866 422.557L215.228 421.406L213.635 420.19L212.148 418.909L210.731 417.567L209.408 416.157L208.142 414.685L206.967 413.182L205.896 411.614L204.911 410.013L203.989 408.38L203.14 406.717L202.412 405.023L201.742 403.295L201.174 401.532L200.699 399.74L200.298 397.95L199.971 396.157L199.746 394.333L199.628 392.509L199.597 390.685L199.687 387.646L199.94 384.671L200.415 381.82L201.057 379.07L201.844 376.382L202.828 373.821L203.989 371.324L205.285 368.957L206.803 366.686L208.454 364.477L210.256 362.4L212.25 360.415L214.363 358.487L216.672 356.697L219.113 355.009L221.702 353.413L224.458 351.908L227.374 350.491L230.41 349.183L233.567 347.961L236.888 346.847L240.372 345.822L243.942 344.89L247.679 344.091L251.534 343.353L255.555 342.752L259.662 342.208L263.905 341.785L268.266 341.471L272.762 341.246L277.378 341.125L282.097 341.077V339.707V339.136L282.035 338.519L281.961 337.886L281.844 337.207L281.68 336.544L281.486 335.837L281.276 335.131L280.98 334.393L280.637 333.655L280.264 332.93L279.819 332.193L279.341 331.424L278.807 330.687L278.196 329.98L277.511 329.243L276.783 328.533L275.993 327.872L275.098 327.193L274.147 326.561L273.135 325.944L272.061 325.373L270.901 324.83L269.636 324.318L268.266 323.836L266.852 323.413L265.334 323.037L263.711 322.723L262.001 322.436L260.227 322.241L258.338 322.074L256.314 321.985L254.228 321.955H252.935L251.595 321.985L250.299 322.074L248.975 322.179L247.679 322.269L246.355 322.436L245.016 322.586L243.72 322.78L242.396 323.006L241.1 323.234L239.776 323.49L238.465 323.773L237.199 324.061L235.903 324.375L234.638 324.692L233.373 325.054L232.139 325.399L230.916 325.791L229.713 326.198L228.537 326.59L227.374 326.997L226.229 327.448L225.096 327.901L223.979 328.352L222.908 328.79L221.865 329.271L220.853 329.753L219.872 330.234L218.918 330.715L218.011 331.228L217.119 331.74L216.271 332.252L208.855 307.102L209.809 306.562L210.793 306.004L211.833 305.461L212.907 304.921L214.052 304.378L215.228 303.835L216.45 303.296L217.715 302.783L219.023 302.24L220.378 301.727L221.764 301.215L223.22 300.734L224.711 300.252L226.229 299.771L227.806 299.321L229.429 298.882L231.095 298.463L232.808 298.04L234.549 297.664L236.32 297.303L238.153 296.957L240.029 296.64L241.918 296.352L243.853 296.069L245.849 295.844L247.874 295.616L249.926 295.421L252.012 295.3L254.126 295.165L256.314 295.075L258.533 294.998ZM341.402 298.692H379.807V366.37L379.837 368.224L379.896 370.017L380.001 371.776L380.149 373.471L380.343 375.137L380.565 376.735L380.849 378.272L381.161 379.775L381.519 381.216L381.92 382.624L382.398 383.969L382.873 385.247L383.438 386.465L384.018 387.647L384.645 388.768L385.345 389.823L386.074 390.817L386.833 391.745L387.681 392.64L388.53 393.44L389.453 394.208L390.434 394.912L391.446 395.553L392.52 396.096L393.637 396.609L394.798 397.056L396.032 397.439L397.297 397.729L398.624 397.985L400.022 398.143L401.435 398.239L402.895 398.269H404.102L405.231 398.173L406.379 398.078L407.45 397.887L408.521 397.692L409.579 397.436L410.591 397.149L411.557 396.797L412.511 396.446L413.433 396.029L414.313 395.581L415.205 395.131L416.026 394.622L416.843 394.109L417.603 393.533L418.362 392.959L419.09 392.351L419.791 391.743L420.46 391.101L421.087 390.462L421.682 389.789L422.29 389.086L422.827 388.382L423.364 387.679L423.87 386.975L424.345 386.238L424.793 385.503L425.194 384.799L425.583 384.062L425.953 383.324L426.311 382.59L426.594 381.855L426.934 380.957L427.217 379.998L427.439 379.038L427.606 378.013L427.754 376.989L427.859 375.934L427.919 374.847V373.724V298.748L466.891 298.756V426.661H435.704L430.761 408.485L430.255 409.254L429.718 409.988L429.126 410.788L428.453 411.59L427.756 412.42L427.04 413.284L426.237 414.179L425.389 415.077L424.509 416.003L423.586 416.901L422.605 417.796L421.562 418.66L420.46 419.493L419.315 420.323L418.109 421.122L416.874 421.925L415.578 422.693L414.224 423.461L412.795 424.165L411.304 424.869L409.758 425.507L408.178 426.149L406.496 426.754L404.799 427.331L403.907 427.587L403 427.843L402.077 428.1L401.155 428.291L400.217 428.516L399.232 428.676L398.251 428.868L397.269 428.997L396.257 429.155L395.214 429.254L394.171 429.349L393.085 429.442L392.014 429.507L390.94 429.537L389.839 429.567H388.694H387.398L386.105 429.502L384.839 429.472L383.574 429.373L382.337 429.247L381.102 429.12L379.896 428.96L378.704 428.765L377.498 428.574L376.322 428.317L375.193 428.061L374.017 427.774L372.915 427.484L371.767 427.132L370.696 426.784L369.595 426.398L368.509 425.981L367.465 425.564L366.426 425.083L365.413 424.605L364.429 424.062L363.448 423.515L362.509 422.942L361.556 422.334L360.633 421.695L359.726 421.022L358.862 420.318L357.982 419.581L357.149 418.846L356.331 418.044L355.514 417.245L354.724 416.381L353.964 415.517L353.236 414.622L352.505 413.693L351.807 412.733L351.122 411.774L350.453 410.749L349.811 409.694L349.215 408.638L348.62 407.518L348.009 406.398L347.475 405.244L346.938 404.062L346.404 402.846L345.926 401.596L345.42 400.318L344.972 399.007L344.543 397.692L344.154 396.319L343.784 394.909L343.426 393.468L343.084 391.999L342.8 390.493L342.547 388.956L342.294 387.388L342.099 385.756L341.908 384.123L341.757 382.429L341.624 380.701L341.535 378.942L341.461 377.18L341.402 375.356V373.468L341.402 298.692ZM278.329 365.888L277.348 365.919L276.394 365.949L275.456 365.987L273.894 366.048L272.376 366.113L270.858 366.243L269.414 366.335L267.954 366.499L266.553 366.657L265.17 366.848L263.844 367.043L262.415 367.265L261.06 367.521L259.693 367.811L258.397 368.099L257.101 368.45L255.866 368.802L254.66 369.153L253.469 369.57L252.324 369.987L251.253 370.434L250.179 370.915L249.167 371.425L248.186 371.971L247.232 372.515L246.352 373.091L245.491 373.73L244.671 374.369L243.911 375.042L243.183 375.715L242.514 376.449L241.887 377.217L241.322 378.02L240.816 378.819L240.341 379.683L239.924 380.578L239.551 381.476L239.224 382.436L238.971 383.395L238.792 384.42L238.628 385.475L238.539 386.531L238.508 387.651L238.539 388.641L238.597 389.601L238.687 390.53L238.85 391.459L239.045 392.323L239.267 393.153L239.551 393.986L239.835 394.755L240.177 395.489L240.563 396.227L240.995 396.9L241.443 397.569L241.918 398.211L242.455 398.788L242.989 399.362L243.6 399.908L244.195 400.387L244.865 400.865L245.519 401.315L246.251 401.698L246.979 402.084L247.738 402.432L248.556 402.753L249.346 403.009L250.21 403.265L251.086 403.49L251.981 403.651L252.888 403.809L253.842 403.938L254.796 404.003L255.777 404.065H256.789H257.922L259.066 403.969L260.199 403.874L261.285 403.713L262.356 403.522L263.427 403.296L264.439 403.009L265.451 402.722L266.467 402.371L267.417 401.985L268.371 401.602L269.278 401.152L270.173 400.673L271.049 400.192L271.87 399.649L272.703 399.106L273.49 398.529L274.28 397.921L275.008 397.313L275.709 396.674L276.394 396.002L277.064 395.329L277.659 394.625L278.27 393.922L278.835 393.218L279.372 392.484L279.878 391.715L280.353 390.978L280.801 390.209L281.202 389.441L281.591 388.673L281.93 387.873L282.066 387.553L282.183 387.235L282.288 386.979L282.378 386.593L282.498 386.176L282.572 385.889L282.751 385.09L282.884 384.291L282.973 383.457L283.078 382.658L283.137 381.825L283.198 381.026L283.228 380.226V379.458V365.892H282.216H281.235H280.266H279.284L278.329 365.888Z" fill="#BABABA"/>
</svg>
