<svg width="512" height="512" viewBox="0 0 512 512" fill="none" xmlns="http://www.w3.org/2000/svg">
<g clip-path="url(#clip0_306_184)">
<g opacity="0.96">
<path d="M129.055 0C89.5675 0 57.5571 32.0119 57.5571 71.4996V279.446C68.4237 265.736 80.6588 252.621 94.4512 240.409V75.257C94.4512 54.0696 111.627 36.8941 132.814 36.8941H414.358C435.546 36.8941 452.721 54.0696 452.721 75.257V356.801C452.721 377.987 435.545 395.166 414.358 395.166H162.476V432.058H418.116C457.603 432.058 489.614 400.046 489.614 360.559V71.4996C489.614 32.0119 457.602 0 418.114 0H129.055ZM121.241 63.9037V163.733C236.987 158.669 273.585 216.031 273.585 216.031C261.715 73.7299 121.241 63.9037 121.241 63.9037ZM273.585 216.031C273.585 216.031 310.182 158.669 425.928 163.733V63.9037C425.928 63.9037 285.455 73.7299 273.585 216.031ZM273.694 215.92C273.694 215.92 331.054 252.518 325.99 368.264H425.821C425.821 368.264 415.993 227.79 273.694 215.92ZM273.476 215.922C1.98711 227.394 22.7502 512 22.7502 512H126.305C105.326 259.946 273.476 215.922 273.476 215.922Z" fill="black"/>
</g>
</g>
<defs>
<clipPath id="clip0_306_184">
<rect width="512" height="512" fill="white"/>
</clipPath>
</defs>
</svg>
