<svg width="512" height="512" viewBox="0 0 512 512" fill="none" xmlns="http://www.w3.org/2000/svg">
<g clip-path="url(#clip0_306_187)">
<path d="M120.523 63.6371C87.8612 63.6371 67.5646 79.2728 67.5646 104.561V125.717H49.293C25.7975 125.717 0 151.619 0 175.207V371.822C0 379.994 6.64402 386.639 14.8117 386.639H62.5665C70.6631 386.639 77.3133 380.055 77.3829 371.836V371.817V371.35C77.3939 371.133 77.4018 370.913 77.4018 370.685C77.4018 370.462 77.3965 370.244 77.3875 370.036C77.3875 369.784 77.3896 369.627 77.392 369.564H77.3776C77.3523 348.77 77.3705 192.789 77.3776 135.526H120.789C144.697 135.526 164.149 154.983 164.149 178.9V371.822C164.149 379.993 170.795 386.638 178.965 386.638H226.757C234.926 386.638 241.573 379.993 241.573 371.822C241.588 285.495 241.543 230.574 241.517 196.741L241.498 164.518C241.498 102.014 171.039 63.6371 120.523 63.6371ZM120.523 73.4508C166.942 73.4508 231.686 108.094 231.686 164.519L231.705 196.746C231.731 230.582 231.774 285.498 231.761 371.822C231.761 374.58 229.517 376.82 226.758 376.82H178.966C176.205 376.82 173.968 374.58 173.968 371.822V178.9C173.968 149.573 150.111 125.713 120.79 125.713H77.3783L77.3828 104.449C77.3828 76.4699 107.553 73.4508 120.523 73.4508ZM285.238 125.357C277.068 125.357 270.422 132.002 270.422 140.174C270.41 226.5 270.452 281.417 270.478 315.25L270.497 347.477C270.497 409.978 340.957 448.359 391.473 448.359C424.138 448.359 444.427 432.724 444.427 407.439L444.431 386.282H462.702C486.197 386.282 512 360.375 512 336.788V140.173C512 132.001 505.351 125.361 497.184 125.361H449.429C441.334 125.361 434.683 131.945 434.612 140.163V140.171V140.643C434.605 140.853 434.593 141.08 434.593 141.307C434.593 141.531 434.597 141.748 434.612 141.953C434.612 142.21 434.611 142.357 434.609 142.429H434.628C434.654 163.219 434.635 319.204 434.628 376.467H391.216C367.307 376.467 347.856 357.003 347.856 333.093V140.173C347.856 132.002 341.208 125.357 333.04 125.357L285.238 125.357ZM285.238 135.171H333.03C335.788 135.171 338.028 137.416 338.028 140.174V333.096C338.028 362.419 361.884 386.279 391.207 386.279H434.618L434.614 407.547C434.614 435.526 404.445 438.545 391.474 438.545C345.056 438.545 280.311 403.898 280.311 347.477L280.292 315.245C280.266 281.412 280.224 226.498 280.236 140.174C280.236 137.416 282.479 135.171 285.238 135.171ZM449.43 135.171H497.185C499.942 135.171 502.183 137.416 502.183 140.174V336.789C502.183 354.963 480.785 376.47 462.703 376.47H444.432C444.439 286.481 444.458 141.447 444.428 140.127C444.454 137.394 446.698 135.171 449.43 135.171ZM49.293 135.527H67.5646C67.5528 225.512 67.5373 370.548 67.5646 371.869C67.5419 374.599 65.2996 376.821 62.5665 376.821H14.8117C12.0551 376.821 9.81372 374.581 9.81372 371.823V175.207C9.81372 157.037 31.2124 135.527 49.293 135.527Z" fill="black"/>
</g>
<defs>
<clipPath id="clip0_306_187">
<rect width="512" height="512" fill="white"/>
</clipPath>
</defs>
</svg>
