<svg width="512" height="512" viewBox="0 0 512 512" fill="none" xmlns="http://www.w3.org/2000/svg">
<g clip-path="url(#clip0_306_190)">
<path d="M256.003 -0.000488281C253.289 -0.000488281 250.576 0.67455 248.164 2.03167L40.0743 122.363C35.5506 125.378 32.5348 130.505 32.5348 135.934C32.5348 141.664 35.5494 146.791 40.3747 149.505L248.164 269.229C250.576 270.737 253.289 271.344 256.003 271.344C258.718 271.344 261.431 270.737 263.843 269.229L471.933 149.204C476.758 146.49 479.772 141.363 479.772 135.633C479.47 130.205 476.457 125.078 471.632 122.062L263.843 2.03167C261.431 0.67455 258.718 -0.000488281 256.003 -0.000488281ZM256.003 33.6974L432.727 135.633L256.003 237.87L79.2795 135.934L256.003 33.6974ZM464.093 192.633C455.347 192.633 448.407 199.567 448.407 208.313V367.242L256.003 478.226L63.5939 367.549V208.613C63.5939 199.867 56.6599 192.933 47.9141 192.933C39.1684 192.933 32.2285 199.867 32.2285 208.613V376.596C32.2285 382.326 35.249 387.453 40.0743 390.167L247.857 509.891C250.27 511.399 252.989 512 255.703 512C258.417 512 261.13 511.4 263.543 509.891L471.632 389.861C476.457 387.147 479.472 382.02 479.472 376.29V208.313C479.472 199.567 472.537 192.633 464.093 192.633Z" fill="black"/>
</g>
<defs>
<clipPath id="clip0_306_190">
<rect width="512" height="512" fill="white"/>
</clipPath>
</defs>
</svg>
