<svg width="512" height="512" viewBox="0 0 512 512" fill="none" xmlns="http://www.w3.org/2000/svg">
<path fill-rule="evenodd" clip-rule="evenodd" d="M256.002 0C256.002 0 238.026 13.9459 207.598 21.643C182.918 27.8917 167.966 31.9184 140.471 41.8158C117.738 50.9797 90.087 66.0851 88.3977 71.153C87.5611 73.6657 95.7048 89.4363 95.7205 89.4998C95.7205 89.4998 96.6956 92.389 95.3637 94.9997C94.5615 96.5513 91.8947 97.4561 90.6025 99.0421C83.2603 107.933 62.354 115.527 56.8599 135.343C55.3242 142.799 58.3105 151.286 64.1806 162.86C75.1901 184.497 76.6918 189.978 83.2609 202.452C86.9175 209.434 92.0483 213.821 84.3565 222.625C60.1505 246.095 45.4931 280.045 49.5204 318.358C52.8142 348.055 66.6564 380.125 86.5571 401.969C96.9708 413.387 104.906 423.969 141.567 448.922C189.251 475.32 231.425 492.917 256.002 512C280.563 492.917 322.752 475.323 370.42 448.922C407.091 423.969 415.029 413.387 425.424 401.969C445.344 380.125 459.184 348.053 462.478 318.358C466.508 280.045 451.841 246.092 427.646 222.628C419.933 213.824 425.07 209.433 428.74 202.454C435.309 189.98 436.81 184.499 447.803 162.862C453.694 151.288 456.676 142.802 455.141 135.346C449.646 115.533 428.742 107.939 421.405 99.0452C420.102 97.4592 417.428 96.5535 416.639 95.0019C415.291 92.3912 416.261 89.5029 416.261 89.5029C416.295 89.4368 424.437 73.6689 423.601 71.1562C421.911 66.091 394.263 50.9828 371.513 41.8189C344.013 31.9189 329.082 27.8912 304.403 21.6451C273.974 13.9454 256.002 0 256.002 0ZM256.002 16.1462C256.002 16.1462 284.725 32.0727 301.485 35.9464C336.322 44.0168 399.026 64.5661 405.629 77.0265C406.874 79.3645 398.306 93.1727 398.306 93.1727C398.306 93.1727 395.59 95.1869 397.928 99.0421C402.71 103.448 407.367 106.674 414.057 111.146C415.273 111.951 435.33 125.449 439.37 134.237C442.664 144.156 433.723 158.967 428.738 169.447C417.71 192.623 418.84 192.557 412.234 205.03C407.833 213.328 401.962 216.022 415.545 228.498C438.282 250.872 448.911 279.101 449.268 310.282C447.068 343.292 436.435 370.8 404.179 405.264C393.771 416.699 379.232 428.744 342.195 448.546C307.345 466.52 280.941 477.153 255.628 495.857C230.332 477.153 204.667 466.52 169.814 448.546C132.777 428.744 118.238 416.697 107.842 405.264C75.5528 370.8 64.9222 343.292 62.7378 310.282C63.0926 279.101 73.7257 250.874 96.4595 228.498C110.027 216.022 104.16 213.328 99.7536 205.03C93.1633 192.557 94.2943 192.626 83.2663 169.447C78.2673 158.967 69.3253 144.156 72.6138 134.237C76.6623 125.449 96.7303 111.948 97.9297 111.146C104.618 106.671 109.31 103.448 114.076 99.0421C116.414 95.1896 113.699 93.1727 113.699 93.1727C113.699 93.1727 105.129 79.3645 106.376 77.0265C112.964 64.5661 175.682 44.0168 210.534 35.9464C227.263 32.0727 256.002 16.1462 256.002 16.1462ZM255.628 40.7275C254.54 42.5571 250.867 49.1612 246.464 49.5372C240.236 50.0456 246.157 46.8228 233.271 46.9578C199.514 47.3364 174.251 77.4421 170.19 80.7015C168.347 82.1684 165.958 86.0897 165.053 83.2778C160.647 69.6947 143.789 76.2983 144.146 85.1048C144.334 89.6961 148.001 92.3383 150.374 92.0656C152.746 91.8059 153.906 88.7054 152.58 86.9288C151.47 85.4619 150.753 83.2781 154.047 82.1686C158.773 80.5985 160.244 89.2667 158.807 93.1748C155.873 101.229 133.139 128.745 131.312 122.512C129.504 116.351 123.613 114.069 119.569 116.643C114.433 121.403 118.783 125.57 120.303 123.606C122.863 120.312 125.678 121.066 125.085 126.915C124.33 133.882 100.129 141.219 100.129 141.219C100.129 141.219 112.026 145.792 120.303 152.946C124.775 156.82 128.511 161.379 128.002 166.516C127.645 170.215 126.843 172.421 124.706 173.853C120.491 176.686 114.412 175.781 114.076 172.386C113.7 168.735 119.927 168.358 118.102 164.686C114.075 160.643 106.755 164.519 106.003 172.028C104.912 183.035 130.579 181.926 136.809 188.887C152.084 195.748 163.21 213.379 163.21 233.825C163.21 260.248 145.068 281.681 122.694 281.681C119.758 280.572 106.423 276.92 106.733 268.845C107.466 249.405 125.797 257.101 121.77 262.241C119.689 264.907 121.036 270.317 125.44 267.023C133.579 260.909 123.612 254.171 123.239 250.877C122.932 248.094 124.979 246.746 123.973 241.691C122.146 232.527 111.494 236.197 116.993 240.224C119.31 241.935 117.371 246.47 116.275 247.204C112.38 249.799 103.614 254.086 100.866 261.862C98.6814 268.06 101.599 277.28 101.599 278.747C101.599 282.041 100.866 289.754 95.7289 288.645C94.2409 288.338 92.5865 285.313 91.3235 285.708C87.2963 284.974 87.232 292.367 94.2619 293.405C104.159 294.872 106.378 283.508 108.941 284.617C115.886 287.585 119.313 286.802 121.394 287.911C122.504 289.021 122.49 291.306 122.49 291.306C113.562 297.978 106.31 308.394 102.658 320.545C101.53 318.771 92.4356 316.155 89.1418 319.449C85.0986 323.122 86.3616 327.712 86.5655 329.367C86.9282 332.285 93.2239 333.019 92.4348 327.149C91.7014 321.655 99.0387 323.5 100.132 328.992C101.599 337.425 99.3303 340.803 99.7566 343.671C103.442 367.138 120.237 381.796 139.934 381.796C143.206 381.796 146.314 381.489 149.301 380.79C152.796 379.967 154.779 386.199 157.718 391.336C157.718 391.336 145.616 396.097 147.088 405.264C148.555 414.449 156.986 419.209 163.213 411.133C165.774 407.844 161.384 407.466 156.623 407.466C153.006 404.906 153.363 400.487 162.117 398.673C172.755 396.473 182.274 419.207 185.96 428.744C189.617 438.271 209.79 464.69 237.3 458.443C239.127 458.033 255.628 483.021 255.628 483.021C255.628 483.021 272.151 458.03 273.98 458.443C301.491 464.69 321.661 438.271 325.32 428.744C328.985 419.207 338.524 396.473 349.158 398.673C357.917 400.487 358.272 404.906 354.658 407.466C349.897 407.466 345.507 407.844 348.067 411.133C354.282 419.209 362.728 414.449 364.195 405.264C365.667 396.097 353.561 391.336 353.561 391.336C356.497 386.199 358.475 379.967 361.978 380.79C364.968 381.489 368.074 381.796 371.347 381.796C391.044 381.796 409.683 367.138 410.772 342.561C410.912 339.678 410.025 333.927 411.15 328.992C412.241 323.497 419.584 321.655 418.848 327.149C418.061 333.022 424.342 332.285 424.72 329.367C424.898 327.712 426.176 323.119 422.136 319.446C418.839 316.152 409.745 318.769 408.617 320.543C404.966 308.392 397.692 297.975 388.787 291.303C388.787 291.303 388.75 289.02 389.86 287.908C391.941 286.799 397.93 287.545 402.712 285.348C406.363 283.658 407.095 294.87 417 293.403C424.027 292.362 423.979 284.969 419.931 285.706C418.686 285.314 417.031 288.335 415.545 288.642C410.39 289.751 409.676 282.039 409.676 278.745C409.676 277.278 412.594 268.058 410.391 261.86C407.645 254.081 398.886 249.797 394.999 247.202C393.903 246.468 391.965 241.93 394.265 240.222C399.76 236.195 389.131 232.523 387.302 241.689C386.295 246.744 388.343 248.088 388.033 250.874C387.66 254.17 377.696 260.906 385.836 267.02C390.239 270.314 391.586 264.905 389.505 262.239C385.478 257.102 403.8 249.402 404.541 268.842C404.827 276.917 391.518 280.569 388.581 281.678C366.208 281.678 348.064 260.242 348.064 233.822C348.064 213.376 359.194 195.744 374.453 188.884C380.699 181.923 406.366 183.033 405.278 172.026C404.507 164.517 397.199 160.64 393.158 164.684C391.331 168.353 397.562 168.732 397.2 172.383C396.863 175.778 390.765 176.683 386.568 173.85C384.431 172.418 383.633 170.212 383.259 166.513C381.792 151.849 411.145 141.219 411.145 141.219C411.145 141.219 386.926 133.882 386.192 126.915C385.578 121.066 388.395 120.312 390.971 123.606C392.491 125.568 396.844 121.401 391.689 116.643C387.662 114.066 381.77 116.351 379.962 122.512C378.135 128.745 355.386 101.229 352.447 93.1748C351.03 89.2667 352.503 80.5985 357.208 82.1686C360.523 83.2781 359.791 85.4619 358.679 86.9288C357.363 88.7081 358.526 91.8088 360.895 92.0656C363.27 92.3385 366.938 89.6961 367.129 85.1048C367.486 76.2957 350.627 69.6921 346.221 83.2778C345.297 86.0897 342.906 82.1684 341.085 80.7015C337.023 77.4421 311.748 47.3338 278.005 46.9578C265.121 46.8202 271.025 50.0456 264.795 49.5372C260.41 49.1586 257.471 42.9304 255.628 40.7275ZM279.012 52.078C296.137 51.8829 317.48 67.7337 330.094 77.7601C335.027 81.6814 353.559 106.363 361.262 115.172C378.837 132.51 382.167 134.971 395.38 142.31C396.079 142.702 389.134 147.804 389.134 147.804C389.134 147.804 385.84 150.38 380.701 143.401C377.441 138.981 363.459 137.954 354.658 149.271C352.095 152.586 348.425 148.913 345.491 149.271C342.555 149.647 345.798 157.535 352.827 155.517C353.902 155.21 355.388 160.64 359.061 161.749C363.459 164.734 367.131 163.571 368.24 160.277C368.619 159.139 370.803 155.141 364.555 157.346C363.22 156.065 361.261 156.613 362.371 151.114C363.443 145.723 378.138 139.75 379.61 153.674C379.968 157.191 378.329 158.419 378.138 159.545C377.542 162.91 376.861 159.663 377.391 166.511C377.595 168.865 377.511 170.965 378.138 172.381C379.912 176.509 382.767 177.364 377.029 181.19C355.767 189.994 342.552 209.4 342.552 234.54C342.552 258.142 355.404 278.265 373.462 285.996C389.499 294.869 407.092 312.488 404.894 341.449C404.894 360.497 389.706 375.926 370.984 375.926C362.991 375.934 355.259 373.082 349.187 367.885C344.99 363.484 341.813 356.47 341.813 349.351C341.813 336.075 351.747 325.319 363.077 325.319C364.549 326.359 366.39 324.586 368.953 332.64C372.262 334.113 372.62 331.411 372.62 328.255C372.62 323.118 367.126 320.913 360.523 318.358C355.675 316.462 359.839 306.088 352.447 305.506C347.686 305.146 345.843 307.349 346.953 310.637C347.686 313.505 350.296 310.86 351.713 311.747C356.495 314.683 349.801 323.01 349.801 323.01C342.207 329.752 337.41 339.26 337.41 349.157C337.41 355.453 339.372 360.987 342.192 366.397C345.451 370.474 348.438 374.279 351.938 376.532C351.938 376.532 355.365 384.743 346.598 392.064C342.192 395.734 337.789 390.954 323.109 416.625C322.363 417.972 319.85 412.679 314.322 410.768C310.636 408.562 299.642 410.767 298.911 420.31C298.225 429.098 306.987 424.716 309.185 417.374C311.997 415.531 314.581 418.876 316.509 422.498C319.17 427.497 313.572 439.377 298.554 448.92C284.966 457.353 260.767 453.323 261.501 437.177C262.049 425.244 278.383 422.498 276.164 432.035C274.845 437.805 290.104 438.644 282.781 426.165C275.444 413.691 258.567 424.719 255.628 432.035C252.697 424.717 235.831 413.688 228.497 426.165C221.155 438.644 236.432 437.805 235.1 432.035C232.894 422.498 249.229 425.244 249.761 437.177C250.494 453.323 226.293 457.351 212.723 448.92C197.689 439.377 192.093 427.5 194.756 422.498C196.7 418.879 199.26 415.531 202.093 417.374C204.293 424.716 213.052 429.101 212.348 420.31C211.633 410.767 200.626 408.565 196.956 410.768C191.427 412.679 188.915 417.972 188.147 416.625C173.486 390.952 169.082 395.734 164.679 392.064C155.91 384.74 159.339 376.532 159.339 376.532C162.48 372.982 166.178 371.208 169.446 367.13C172.32 361.574 173.828 355.413 173.844 349.157C173.844 339.257 169.048 329.752 161.473 323.01C161.473 323.01 154.78 314.683 159.543 311.747C160.978 310.86 163.57 313.505 164.324 310.637C165.413 307.349 164.99 306.393 158.81 305.882C150.022 305.145 155.605 316.459 150.755 318.355C144.151 320.91 138.639 323.116 138.639 328.253C138.639 331.409 139.015 334.107 142.309 332.637C144.885 324.583 146.714 326.357 148.178 325.317C159.527 325.317 169.446 336.072 169.446 349.347C169.446 356.467 166.284 363.481 162.09 367.882C156.016 373.075 148.286 375.927 140.294 375.923C121.571 375.923 106.381 360.495 106.381 341.447C104.163 312.486 121.773 294.869 137.821 285.996C155.858 278.265 168.728 258.14 168.728 234.54C168.728 209.4 155.516 189.994 134.233 181.19C128.516 177.364 131.35 176.509 133.142 172.381C133.757 170.965 133.688 168.862 133.876 166.511C134.421 159.666 133.738 162.91 133.142 159.545C132.933 158.422 131.315 157.191 131.67 153.674C133.142 139.747 147.835 145.723 148.91 151.114C150.019 156.613 148.057 156.062 146.709 157.346C140.476 155.141 142.661 159.139 143.037 160.277C144.147 163.571 147.818 164.734 152.216 161.749C155.873 160.64 157.375 155.21 158.45 155.517C165.48 157.535 168.723 149.647 165.786 149.271C162.853 148.913 159.183 152.586 156.623 149.271C147.798 137.957 133.189 138.568 130.579 143.401C125.797 152.207 121.77 147.441 121.77 147.441C121.77 147.441 115.187 142.699 115.9 142.31C127.269 136.077 132.422 132.51 150.019 115.172C157.719 106.363 176.251 81.6841 181.186 77.7601C197.332 64.9263 227.757 42.5527 245.375 56.4959C252.389 62.0589 249.76 68.2174 247.197 70.4362C244.264 73.3541 242.249 63.2659 240.97 63.8166C236.922 64.5659 243.17 71.1533 240.237 74.0924C237.507 77.0393 232.571 73.4732 232.894 70.4362C233.627 63.4567 217.503 76.6692 236.921 82.1634C241.073 83.3231 240.97 80.6957 243.901 81.0531C246.837 81.4292 250.492 85.0995 255.628 84.3661C260.765 85.0995 264.437 81.4291 267.376 81.0531C270.307 80.6955 270.204 83.3204 274.337 82.1634C293.777 76.6692 277.632 63.4567 278.384 70.4362C278.707 73.4706 273.77 77.0393 271.043 74.0924C268.112 71.1533 274.338 64.5659 270.31 63.8166C269.013 63.2659 267.016 73.3541 264.082 70.4362C261.501 68.2174 258.89 62.0589 265.904 56.4959C269.753 53.4452 274.217 52.1325 279.012 52.078ZM255.894 68.1697C256.069 68.1659 256.219 68.4033 256.357 68.9503C257.619 73.989 261.869 76.2932 260.026 77.7601C257.214 80.0133 250.01 78.4294 251.238 76.6687C253.917 72.7834 255.137 68.1905 255.894 68.1697ZM305.51 98.6664C296.33 98.6664 283.273 102.882 277.708 105.445C273.082 107.595 266.905 109.199 260.063 109.8C254.548 110.277 249.342 110.052 244.944 109.25C237.348 107.886 228.493 106.009 220.791 103.448C212.715 97.9332 211.985 106.367 213.351 107.476C218.196 108.877 223.473 111.043 228.589 113.892C233.371 117.498 236.699 121.643 239.498 125.448C231.883 128.226 224.665 133.725 221.525 139.018C218.368 133.826 211.202 129.1 205.755 129.1C192.355 127.649 185.581 136.659 185.581 145.058C185.581 149.138 187.522 152.824 190.684 155.554C190.684 155.554 195.478 158.08 198.634 155.52C199.847 154.513 198.788 152.806 198.788 151.493C195.857 147.807 196.898 141.937 203.195 141.937C209.457 141.937 214.559 147.823 214.559 154.41C200.976 161.565 189.981 174.449 189.981 188.718C189.981 203.789 199.151 217.134 217.495 223.741V297.079C217.495 297.079 218.212 305.149 209.782 294.873C207.632 292.249 205.191 290.949 202.442 286.818C192.545 271.048 185.102 257.102 182.645 257.102C179.351 257.102 176.417 257.465 180.081 263.335C183.447 268.729 185.223 274.964 185.206 281.322C185.206 287.176 186.433 294.362 173.835 304.413C168.341 308.819 173.478 313.222 178.242 308.818C183.024 304.412 187.427 305.148 188.878 305.148C192.934 305.148 202.442 305.885 211.628 315.785C214.768 316.911 216.746 319.709 216.746 323.31C216.746 327.867 213.145 331.553 208.691 331.553C204.235 331.553 200.62 327.867 200.62 323.31C200.62 321.189 201.542 320.917 202.821 319.45C202.821 319.45 201.354 314.689 195.86 318.716C193.858 320.167 189.251 325.319 190.718 328.989C191.081 338.153 203.094 348.157 220.418 339.263C223.267 343.857 228.557 350.153 233.987 353.566C239.601 357.085 245.302 357.662 244.823 359.198C240.592 372.627 228.494 376.962 228.494 376.962C220.098 378.344 212.718 378.14 211.63 371.16C206.136 359.794 219.685 362.73 215.657 355.03C212.342 353.921 207.958 354.284 206.165 355.099C200.348 358.716 196.572 364.403 196.572 370.798C196.572 381.72 207.582 390.601 221.149 390.601C227.075 390.601 232.498 388.911 236.75 386.113C242.228 382.475 248.665 379.591 251.953 374.455C255.623 379.591 267.469 386.383 270.665 388.4C276.53 392.067 294.86 394.271 281.666 385.464C260.508 371.365 263.698 356.857 263.698 356.857C277.999 356.5 302.579 336.684 306.008 312.332C326.933 300.078 334.185 271.933 322.069 248.161C315.159 234.612 303.431 225.223 290.476 221.537L291.206 218.976C298.173 208.703 301.125 195.099 301.482 182.284C301.482 179.845 301.26 177.507 300.833 175.304C302.305 174.213 307.492 177.181 311.742 183.393C316.503 190.354 322.016 184.503 317.237 180.817C313.549 177.984 309.912 164.33 309.536 161.753C309.179 159.172 309.179 149.65 309.915 148.185C311.554 144.905 309.916 135.707 305.51 144.514C301.106 153.32 294.86 151.117 294.86 151.117C291.567 144.156 282.715 130.038 267.008 126.182C269.192 120.667 277.247 113.296 288.955 108.551C295.014 106.115 299.827 104.474 304.778 104.167C306.605 100.873 306.985 98.6664 305.51 98.6664ZM247.192 136.81V147.07C238.388 146.337 231.423 148.914 231.068 148.657C232.736 143.059 238.457 137.377 247.192 136.81ZM263.698 138.606C271.273 140.518 277.284 145.827 279.09 151.117C278.375 151.117 266.629 147.074 263.698 147.807V138.606ZM247.192 159.343V213.106C247.192 213.106 239.138 213.824 235.094 212.352C232.346 211.348 231.8 209.058 231.8 209.058V162.121C236.805 160.598 241.971 159.666 247.192 159.343ZM263.643 159.581C268.046 159.581 267.369 161.013 273.596 161.389C276.517 162.464 283.271 163.285 284.96 165.793C287.063 168.851 287.42 175.217 287.166 182.281C286.176 200.373 283.138 207.59 277.268 215.29C276.312 218.004 273.289 217.372 270.302 216.757C268.111 216.336 265.909 215.972 263.698 215.667L263.643 159.581ZM217.498 169.087V207.588C208.318 202.827 205.024 195.882 205.024 188.884C205.024 181.632 210.211 174.377 217.498 169.087ZM232.155 225.94C238.025 226.673 240.965 227.031 247.569 227.031V233.995H232.155V225.94ZM279.946 234.158C288.706 234.332 300.503 241.77 306.844 253.212C315.036 264.444 313.773 281.969 305.885 289.068L305.581 288.266C305.237 280.672 302.676 271.765 297.881 263.109C290.322 249.457 277.999 239.864 270.665 238.037C271.616 237.116 271.546 236.997 272.724 236.348C274.439 234.952 276.635 234.25 279.108 234.164C279.384 234.153 279.663 234.154 279.946 234.158ZM231.798 246.468H247.19L247.192 311.378C247.192 313.629 239.937 312.948 235.449 309.551C232.635 307.42 231.798 304.057 231.798 304.057V246.468ZM263.698 251.61C263.698 251.61 291.564 259.68 292.673 293.05C292.763 295.944 293.394 304.411 288.654 306.617C282.776 309.927 277.625 312.111 272.865 312.487C264.077 312.111 263.698 313.306 263.698 311.752V251.61ZM286.429 323.495C286.072 328.989 276.159 338.971 264.075 342.916V327.879C274.173 327.299 282.712 325.478 286.429 323.495ZM232.889 325.682C236.799 326.415 241.698 328.258 247.157 327.882V343.752C237.655 340.821 233.286 331.825 232.889 325.682ZM255.623 443.785L265.165 456.977L255.623 470.918L246.102 456.977L255.623 443.785Z" fill="#BABABA"/>
</svg>
