<svg width="512" height="512" viewBox="0 0 512 512" fill="none" xmlns="http://www.w3.org/2000/svg">
<g clip-path="url(#clip0_306_120)">
<path d="M368.207 236.713C367.038 219.18 362.362 201.646 353.011 186.45L273.525 47.3495C267.68 36.8295 263.005 25.1406 260.667 13.4512L257.16 19.2957C237.289 53.1944 237.289 96.4438 257.16 130.343L321.451 241.389C341.322 275.287 341.322 318.537 321.451 352.435L317.944 358.28C315.606 346.591 310.931 334.902 305.086 324.382L246.641 222.686L209.235 157.227C203.391 146.707 198.715 135.018 196.377 123.329L192.87 129.174C172.999 163.072 172.999 205.153 192.87 240.22L257.16 351.266C277.032 385.165 277.032 428.415 257.16 462.313L253.654 468.157C251.316 456.468 246.64 444.779 240.796 434.259L160.141 295.159C149.621 276.456 144.945 255.416 144.945 234.375C59.6144 256.585 0 304.51 0 359.449C0 436.597 114.553 498.549 255.991 498.549C397.43 498.549 511.983 436.597 511.983 359.449C513.152 306.848 454.706 258.922 368.207 236.713Z" fill="#BABABA"/>
</g>
<defs>
<clipPath id="clip0_306_120">
<rect width="512" height="512" fill="white"/>
</clipPath>
</defs>
</svg>
