<svg width="512" height="512" viewBox="0 0 512 512" fill="none" xmlns="http://www.w3.org/2000/svg">
<g clip-path="url(#clip0_306_199)">
<path d="M255.993 480.888C264.08 480.889 272.167 476.886 276.791 468.884L392.772 268.009L414.586 230.224H331.914H284.476H258.29H207.263L152.34 325.354L235.201 468.878C239.822 476.882 247.906 480.887 255.993 480.888ZM141.038 305.789L184.666 230.224L246.989 122.274L194.362 31.1118L24.0464 31.1156C14.8056 31.1189 7.29725 36.1176 3.25404 43.1196C-0.789165 50.1215 -1.36859 59.1234 3.24875 67.1277L119.23 268.002L141.038 305.789ZM426.963 208.794L508.748 67.1402C517.99 51.1289 506.432 31.1136 487.945 31.1118H255.993H216.954L258.285 102.709L275.061 131.76L295.102 166.464L319.542 208.794H426.963Z" fill="black"/>
</g>
<defs>
<clipPath id="clip0_306_199">
<rect width="512" height="512" fill="white"/>
</clipPath>
</defs>
</svg>
