<svg width="512" height="512" viewBox="0 0 512 512" fill="none" xmlns="http://www.w3.org/2000/svg">
<path d="M248.773 0.00203952C246.206 0.0171576 243.639 0.113934 241.077 0.263981C238.273 0.428391 235.473 0.66173 232.681 0.963185C229.378 1.31997 226.087 1.797 222.799 2.27549C219.294 2.7855 215.789 3.30067 212.305 3.93699C208.205 4.68575 204.119 5.52212 200.062 6.47267C196.922 7.20801 193.799 8.01692 190.704 8.92132C186.793 10.0643 182.919 11.3382 179.073 12.6823C175.398 13.9665 168.142 16.7925 168.142 16.7925C168.142 16.7925 170.628 19.0866 171.815 20.2905C173.321 21.818 174.712 23.4551 176.187 25.0127C178.866 27.8416 181.62 30.5987 184.32 33.408C187.306 36.5152 190.296 39.6194 193.241 42.7656C196.244 45.974 199.191 49.2336 202.16 52.4733C205.576 56.2001 208.995 59.9239 212.392 63.6673C214.792 66.3115 217.231 68.9223 219.564 71.6255C221.986 74.4312 224.305 77.3227 226.647 80.1958C229.411 83.5874 232.128 87.0171 234.868 90.4276C237.491 93.6926 240.074 96.9903 242.738 100.222C245.093 103.079 247.629 105.787 249.909 108.705C252.609 112.16 255.009 115.84 257.605 119.375C260.17 122.866 262.845 126.275 265.388 129.781C267.293 132.407 269.131 135.079 270.986 137.74C273.479 141.315 275.963 144.895 278.419 148.496C280.419 151.428 282.449 154.342 284.366 157.329C286.026 159.917 287.535 162.599 289.176 165.199C290.772 167.729 292.461 170.2 294.073 172.72C295.52 174.982 296.899 177.287 298.358 179.541C299.729 181.659 300.956 183.887 302.556 185.838C303.706 187.241 304.928 188.631 306.404 189.686C307.804 190.687 309.358 191.59 311.039 191.959C312.263 192.229 313.593 192.214 314.799 191.872C316.131 191.494 317.379 190.726 318.385 189.774C319.958 188.284 321.011 186.294 321.97 184.351C323.076 182.111 323.791 179.686 324.419 177.267C325.006 175.004 325.413 172.687 325.643 170.36C326.036 166.384 325.823 162.372 325.906 158.378C325.968 155.376 326.182 152.372 326.081 149.371C325.866 142.996 324.992 136.659 324.419 130.306C324.108 126.865 323.864 123.417 323.457 119.987C323.048 116.536 322.549 113.094 321.97 109.667C321.485 106.798 320.911 103.944 320.309 101.097C319.472 97.1464 318.517 93.2221 317.598 89.2904C316.595 85.0012 315.621 80.7044 314.537 76.4349C313.408 71.9867 312.308 67.5262 310.951 63.1423C309.882 59.69 308.511 56.3383 307.366 52.9105C306.116 49.1679 305.068 45.3588 303.78 41.6293C302.855 38.9527 301.848 36.305 300.807 33.6712C299.833 31.2039 298.782 28.7673 297.746 26.3252C296.569 23.5483 295.352 20.7878 294.16 18.0169C292.845 14.9578 291.685 11.8277 290.225 8.83435C289.191 6.71177 286.814 2.62567 286.814 2.62567C286.814 2.62567 283.96 2.19914 282.529 2.01349C279.037 1.56036 275.546 1.0722 272.035 0.789191C268.138 0.475112 264.224 0.395944 260.316 0.264039C256.469 0.134401 252.622 -0.0198817 248.773 0.00203952ZM376.366 35.6828C376.366 35.6828 376.453 42.097 376.366 45.3024C376.278 48.5126 376.063 51.7184 375.841 54.922C375.553 59.0662 375.162 63.2028 374.791 67.3404C374.405 71.6568 373.969 75.9681 373.567 80.283C372.916 87.2783 372.395 94.2865 371.643 101.272C371.135 106.003 370.504 110.72 369.894 115.439C369.057 121.915 368.275 128.401 367.27 134.854C366.496 139.826 365.51 144.762 364.648 149.72C363.938 153.799 363.353 157.902 362.548 161.963C361.494 167.28 360.194 172.544 358.975 177.825C357.927 182.366 356.861 186.902 355.76 191.43C354.756 195.559 353.722 199.681 352.667 203.797C351.176 209.619 349.526 215.401 348.091 221.237C347.475 223.742 346.561 226.208 346.36 228.781C346.222 230.552 346.327 232.368 346.731 234.099C346.954 235.053 347.361 235.967 347.845 236.819C348.556 238.074 349.281 239.426 350.441 240.283C351.816 241.297 353.561 241.892 355.265 242.014C357.112 242.146 358.941 241.458 360.707 240.9C362.679 240.278 364.564 239.385 366.396 238.427C368.758 237.191 371.049 235.799 373.198 234.222C375.79 232.32 378.085 230.043 380.495 227.915C383.241 225.49 386.05 223.128 388.658 220.555C392.199 217.063 395.544 213.371 398.799 209.61C402.233 205.643 405.475 201.512 408.693 197.367C412.225 192.817 415.712 188.229 419.02 183.515C422.237 178.932 425.36 174.277 428.272 169.495C431.064 164.909 433.618 160.179 436.143 155.441C437.839 152.259 439.432 149.024 441.03 145.792C442.639 142.535 444.283 139.292 445.763 135.975C447.593 131.871 449.251 127.692 450.886 123.506C452.218 120.095 454.701 113.204 454.701 113.204C454.701 113.204 452.273 109.533 451.052 107.701C449.553 105.451 448.119 103.155 446.538 100.961C444.924 98.7195 443.183 96.5711 441.468 94.4059C439.721 92.2006 437.934 90.0262 436.15 87.8509C433.959 85.18 431.822 82.4607 429.533 79.8736C427.861 77.9846 426.104 76.1721 424.339 74.3698C420.431 70.3796 416.51 66.3965 412.397 62.6182C408.042 58.6182 403.562 54.7474 398.929 51.074C394.908 47.8863 390.763 44.8494 386.511 41.9786C383.212 39.7517 376.366 35.6828 376.366 35.6828ZM78.9719 78.9458C78.9719 78.9458 73.5284 84.901 70.9946 88.0365C68.6704 90.9127 66.5648 93.9589 64.3775 96.9407C60.8852 101.701 57.1963 106.33 53.9888 111.287C49.8554 117.675 46.1783 124.355 42.6111 131.076C38.998 137.883 35.5201 144.776 32.4692 151.853C29.2259 159.377 26.2375 167.031 23.8118 174.857C21.0654 183.718 17.1641 201.881 17.1641 201.881C17.1641 201.881 31.3225 200.171 38.4053 199.346C49.2853 198.078 60.1438 196.589 71.0559 195.635C88.6623 194.098 106.319 193.128 123.978 192.398C132.077 192.063 140.184 191.934 148.289 191.873C157.501 191.802 166.717 191.795 175.925 192.048C184.327 192.278 192.723 192.734 201.111 193.272C207.706 193.695 214.297 194.208 220.875 194.846C226.482 195.391 232.051 196.308 237.666 196.77C239.993 196.961 242.51 197.138 244.619 197.076C246.528 197.02 248.565 196.672 250.346 195.983C251.978 195.351 253.569 194.416 254.719 193.097C255.837 191.816 256.435 190.223 256.731 188.55C257.005 186.998 256.844 185.376 256.556 183.827C256.162 181.706 255.397 179.647 254.457 177.706C253.612 175.959 252.401 174.413 251.308 172.808C250.298 171.324 249.312 169.814 248.161 168.435C246.707 166.694 245.037 165.146 243.438 163.538C241.113 161.199 238.817 158.823 236.354 156.629C233.802 154.354 231.081 152.275 228.396 150.158C225.947 148.227 223.451 146.354 220.962 144.474C217.921 142.175 214.922 139.818 211.8 137.631C206.63 134.009 201.369 130.51 195.97 127.242C191.691 124.652 185.274 120.604 180.881 118.214C173.785 114.353 168.683 112.19 161.463 108.567C156.288 105.97 151.071 103.446 145.756 101.146C140.185 98.7354 134.491 96.6169 128.813 94.4681C123.727 92.5433 118.641 90.6067 113.477 88.9021C107.718 87.001 101.804 85.1413 95.9767 83.4606C90.3017 81.8239 78.9719 78.9458 78.9719 78.9458ZM489.617 197.732C489.617 197.732 485.901 200.956 484.02 202.541C481.504 204.664 478.983 206.784 476.411 208.838C473.65 211.043 470.81 213.147 468.016 215.31C465.388 217.345 462.824 219.464 460.146 221.432C457.259 223.552 454.239 225.487 451.312 227.553C445.895 231.378 440.664 235.47 435.16 239.169C429.748 242.806 424.13 246.125 418.587 249.558C413.081 252.968 407.641 256.493 402.015 259.7C396.503 262.841 390.853 265.735 385.194 268.604C379.8 271.338 374.304 273.865 368.87 276.519C363.833 278.978 358.847 281.542 353.781 283.94C351.038 285.238 348.054 286.082 345.494 287.712C344.076 288.616 342.784 289.738 341.661 290.989C340.66 292.104 339.749 293.338 339.125 294.699C338.623 295.795 338.267 296.991 338.197 298.194C338.138 299.202 338.337 300.227 338.63 301.193C338.936 302.199 339.434 303.146 339.991 304.038C340.589 304.997 341.304 305.887 342.093 306.696C343.104 307.734 344.262 308.626 345.432 309.479C346.675 310.386 347.96 311.25 349.328 311.953C350.751 312.684 352.281 313.19 353.781 313.746C355.761 314.481 357.754 315.188 359.779 315.787C361.797 316.384 363.84 316.909 365.902 317.332C369.377 318.046 372.896 318.537 376.414 319.003C379.516 319.413 382.633 319.716 385.751 319.992C389.539 320.326 393.332 320.615 397.13 320.796C402.093 321.033 407.064 321.256 412.032 321.167C416.781 321.082 421.525 320.73 426.256 320.301C431.053 319.865 435.837 319.278 440.601 318.569C447.144 317.595 453.682 316.525 460.143 315.107C466.804 313.645 473.398 311.867 479.931 309.912C483.828 308.745 491.494 306.016 491.494 306.016C491.494 306.016 491.95 301.624 492.182 299.428C492.486 296.553 492.822 292.883 493.102 290.804C493.437 288.322 493.594 285.819 493.782 283.322C493.963 280.933 494.115 278.542 494.216 276.149C494.395 271.905 494.375 267.655 494.524 263.41C494.603 261.183 494.82 258.959 494.833 256.731C494.867 251.245 494.527 245.763 494.277 240.283C494.108 236.591 493.952 232.897 493.64 229.215C493.418 226.613 493.033 224.029 492.764 221.432C492.478 218.665 492.316 215.885 491.978 213.123C491.692 210.783 491.285 208.458 490.928 206.127C490.499 203.328 489.617 197.732 489.617 197.732ZM200.047 232.807C198.898 232.808 197.731 232.85 196.495 232.912C192.663 233.106 188.356 233.732 184.591 234.47C178.017 235.758 171.497 237.348 165.05 239.169C158.125 241.125 151.274 243.364 144.52 245.847C135.567 249.139 126.723 252.753 118.053 256.731C107.798 261.436 97.6889 266.497 87.8761 272.067C77.79 277.792 67.9216 283.938 58.4414 290.619C44.9049 300.158 19.3593 321.29 19.3593 321.29C19.3593 321.29 27.5473 350.195 33.706 363.835C41.3822 380.836 50.9235 397.06 61.6572 412.316C65.2447 417.415 70.674 424.178 75.825 430.036C80.9761 435.895 85.8483 440.849 85.8483 440.849C85.8483 440.849 91.6706 430.424 94.6961 425.144C99.8372 416.172 105.052 406.975 110.335 398.086C117.477 386.068 124.704 374.093 132.373 362.405C140.458 350.082 148.758 338.312 157.383 326.361C161.209 321.059 165.361 315.564 169.38 310.406C175.774 302.199 182.444 294.21 189.043 286.166C192.033 282.522 195.005 278.862 198.072 275.282C201.796 270.935 205.64 266.691 209.451 262.42C211.297 260.351 213.377 258.473 215.016 256.236C215.977 254.924 216.773 253.491 217.489 252.031C218.174 250.636 218.927 249.229 219.22 247.703C219.501 246.246 219.482 244.711 219.22 243.25C219.011 242.082 218.593 240.93 217.984 239.911C217.249 238.683 216.279 237.561 215.139 236.695C213.788 235.669 212.154 235.059 210.563 234.47C209.044 233.906 207.465 233.481 205.864 233.233C203.824 232.917 201.962 232.806 200.047 232.807ZM231.278 303.216C229.913 303.224 228.641 303.425 227.878 303.728C226.335 304.34 224.782 305.091 223.425 306.078C221.657 307.364 220.195 309.035 218.726 310.654C216.952 312.609 215.222 314.627 213.779 316.838C211.542 320.266 209.91 324.054 208.09 327.721C206.023 331.884 203.939 336.046 202.153 340.337C199.929 345.683 198.11 351.19 196.217 356.662C194.317 362.157 192.424 367.659 190.775 373.235C189.033 379.122 187.447 385.06 186.075 391.044C184.536 397.758 183.29 404.539 182.117 411.327C181.081 417.325 180.234 423.355 179.397 429.384C178.677 434.57 177.891 439.752 177.418 444.966C176.873 450.97 176.594 456.998 176.429 463.024C176.289 468.134 176.344 473.248 176.429 478.359C176.511 483.308 176.784 488.253 176.924 493.2C176.98 495.193 177.061 499.181 177.061 499.181C177.061 499.181 181.259 500.287 183.358 500.842C186.769 501.744 190.162 502.715 193.59 503.553C196.956 504.376 200.34 505.131 203.735 505.827C209.227 506.954 214.734 508.025 220.272 508.907C224.604 509.598 228.955 510.19 233.319 510.639C237.267 511.044 241.23 511.289 245.193 511.505C249.724 511.753 254.259 512.009 258.797 512C263.563 511.992 268.332 511.783 273.085 511.424C276.243 511.185 279.388 510.785 282.529 510.375C285.452 509.993 288.363 509.523 291.274 509.062C292.676 508.84 295.473 508.363 295.473 508.363C295.473 508.363 291.037 496.088 288.727 489.985C286.88 485.101 284.876 480.278 283.038 475.391C280.908 469.727 278.83 464.044 276.854 458.324C274.785 452.336 272.869 446.295 270.917 440.267C269.078 434.586 267.165 428.927 265.475 423.2C263.783 417.464 262.295 411.669 260.776 405.885C259.415 400.702 258.056 395.516 256.818 390.302C255.317 383.976 253.992 377.609 252.613 371.256C251.272 365.077 249.836 358.916 248.656 352.704C247.44 346.299 246.475 339.848 245.44 333.41C244.5 327.562 244.243 321.573 242.719 315.849C242.009 313.182 241.287 310.412 239.751 308.118C238.599 306.398 237.155 304.634 235.237 303.852C234.101 303.389 232.643 303.207 231.278 303.216ZM294.292 325.372C292.692 325.398 291.032 325.66 289.593 326.361C288.383 326.95 287.31 327.882 286.501 328.958C285.706 330.014 285.294 331.325 284.891 332.584C284.446 333.973 284.176 335.42 284.016 336.869C283.849 338.376 283.795 339.906 283.929 341.416C284.127 343.666 284.712 345.867 285.241 348.062C285.738 350.125 286.341 352.163 286.989 354.184C287.652 356.247 288.348 358.303 289.176 360.306C290.272 362.957 291.623 365.496 292.849 368.09C293.897 370.306 294.897 372.545 295.997 374.736C296.945 376.623 297.934 378.492 298.971 380.333C300.536 383.112 302.167 385.855 303.868 388.553C305.045 390.42 306.31 392.231 307.541 394.063C308.7 395.787 309.859 397.512 311.039 399.222C313.748 403.15 316.424 407.104 319.259 410.941C320.839 413.08 322.454 415.195 324.157 417.237C325.782 419.188 327.566 421.003 329.229 422.922C331.126 425.11 332.907 427.4 334.826 429.569C336.33 431.268 337.866 432.939 339.461 434.553C341.215 436.327 343.097 437.971 344.883 439.713C346.654 441.44 348.365 443.227 350.131 444.96C351.69 446.49 353.225 448.05 354.853 449.508C356.379 450.875 358.019 452.11 359.575 453.443C361.05 454.706 362.437 456.071 363.947 457.291C365.358 458.43 366.861 459.452 368.321 460.527C370.503 462.135 372.708 463.713 374.879 465.336C376.729 466.719 378.519 468.181 380.389 469.534C381.619 470.425 384.143 472.114 384.143 472.114C384.143 472.114 388.318 469.078 390.389 467.538C392.503 465.966 394.598 464.369 396.697 462.776C398.969 461.051 401.292 459.39 403.499 457.582C405.94 455.582 408.293 453.477 410.61 451.336C413.586 448.586 416.432 445.697 419.329 442.864C421.81 440.439 424.369 438.091 426.75 435.568C428.855 433.336 430.836 430.989 432.811 428.642C435.132 425.883 437.358 423.045 439.612 420.231C441.52 417.849 443.497 415.519 445.302 413.058C447.215 410.449 448.893 407.674 450.743 405.02C451.875 403.396 453.132 401.859 454.206 400.196C455.368 398.396 456.332 396.475 457.422 394.63C457.989 393.669 459.153 391.764 459.153 391.764C459.153 391.764 454.424 390.639 452.067 390.047C448.043 389.037 444.016 388.034 440.02 386.919C435.49 385.655 430.997 384.262 426.502 382.881C421.791 381.434 417.08 379.985 412.403 378.429C408.259 377.049 404.142 375.589 400.036 374.1C396.062 372.66 392.102 371.179 388.163 369.648C384.352 368.167 380.566 366.625 376.785 365.072C372.939 363.492 369.109 361.874 365.283 360.248C361.73 358.739 358.147 357.299 354.646 355.672C351.135 354.041 347.709 352.234 344.258 350.478C340.658 348.648 337.064 346.806 333.498 344.913C329.31 342.69 325.168 340.384 321.007 338.111C317.995 336.466 314.944 334.89 311.978 333.164C309.163 331.525 306.563 329.513 303.661 328.031C302.291 327.331 300.872 326.698 299.394 326.268C297.736 325.786 296.019 325.343 294.292 325.372Z" fill="#BABABA"/>
</svg>
